<svg width="512" height="104" viewBox="0 0 512 104" fill="none" xmlns="http://www.w3.org/2000/svg">
<g clip-path="url(#clip0_109_22)">
<path d="M35.7719 59.0453L36.7617 60.0368L37.6976 60.9741L62.5433 36.0883C69.6603 28.9597 76.1065 22.4787 80.7606 17.7827C81.8633 16.6701 82.8651 15.658 83.7513 14.7614C82.8172 15.0949 81.8155 15.4538 80.7766 15.8272L72.3159 18.878L54.0817 38.9023L35.7719 59.0453ZM35.7719 59.0453C36.0371 58.7524 36.3946 58.3582 36.8356 57.8726C37.8207 56.7875 39.2199 55.2482 40.9297 53.3677C41.9396 52.2569 43.0579 51.0271 44.2631 49.7018C47.1379 46.5403 50.5073 42.835 54.0808 38.9033L35.7719 59.0453ZM43.2297 81.4414L33.0819 71.2771L43.2297 81.4414ZM43.2297 81.4414C43.2506 81.3372 43.2686 81.2355 43.2827 81.1398L43.2826 81.1398L43.2841 81.1299C43.4652 79.9515 43.1487 78.2039 42.5638 77.136C42.5524 77.1212 42.5169 77.074 42.4428 76.9842C42.3351 76.8539 42.1835 76.6784 41.9869 76.4579C41.5949 76.0181 41.0503 75.4286 40.3772 74.7167C39.0326 73.2946 37.1968 71.4069 35.0891 69.2958L35.0875 69.2942C31.7668 65.9583 29.9733 64.1674 28.8422 63.1229C27.7538 62.1179 27.368 61.8871 26.8708 61.6376C26.2263 61.3248 25.9527 61.2124 25.6834 61.1471C25.4085 61.0806 25.0662 61.0465 24.2668 61.027L24.2529 61.0267L24.2391 61.0261C23.7007 61.003 23.3115 61.0036 22.9985 61.0267C23.492 61.541 24.0916 62.16 24.7803 62.8666C26.8948 65.0359 29.8324 68.0126 33.0803 71.2755L43.2297 81.4414ZM82.916 6.86444L82.9183 6.86362C86.9653 5.42081 90.7105 4.10492 93.4875 3.14665C94.8752 2.66778 96.0254 2.27674 96.852 2.00343C97.2642 1.86715 97.6033 1.7577 97.854 1.68066C97.9781 1.64251 98.0911 1.60908 98.185 1.58358C98.2101 1.57677 98.4196 1.51524 98.6274 1.50299L98.6549 1.50137L98.6823 1.50076C99.5398 1.48168 100.33 1.82513 100.925 2.27094C101.525 2.72053 102.057 3.37083 102.326 4.15728C102.327 4.15994 102.328 4.1626 102.329 4.16526L102.329 4.16585C102.364 4.26553 102.435 4.4679 102.472 4.71977C102.512 4.99208 102.506 5.25826 102.471 5.53236C102.408 6.02947 102.228 6.69195 101.921 7.66798C101.293 9.66347 99.9788 13.4174 97.3902 20.8144C95.9595 24.9072 94.621 28.6787 93.6149 31.4561C93.1122 32.8438 92.6905 33.9888 92.381 34.8032C92.2269 35.2089 92.097 35.542 91.9971 35.7853C91.9479 35.9052 91.9003 36.017 91.8574 36.11C91.8365 36.1553 91.8095 36.2117 91.7787 36.2691L91.777 36.2722C91.7625 36.2998 91.68 36.4559 91.5431 36.6067C91.4638 36.6942 91.225 36.9159 90.9727 37.1502L90.9554 37.1662C90.6508 37.4491 90.2149 37.8519 89.663 38.3605C88.5588 39.3782 86.9857 40.8237 85.0603 42.5904C81.2092 46.1241 75.9458 50.9447 70.1981 56.2016L70.1971 56.2025C64.441 61.458 59.2139 66.2475 55.4262 69.73C53.5322 71.4715 51.9991 72.8852 50.9402 73.8666C50.554 74.2245 50.232 74.5239 49.9791 74.7603C50.0476 74.9595 50.126 75.1809 50.2096 75.41L50.2133 75.4199L50.2167 75.4298C51.0008 77.6735 51.1625 81.1735 50.6384 83.5795L50.6371 83.5851C50.2442 85.3563 49.1448 87.8346 48.1581 89.1445L48.1531 89.1513L48.1479 89.1579C47.4359 90.0815 46.5665 90.8231 45.602 91.23C44.6214 91.6438 43.4815 91.7261 42.4318 91.1823C42.2436 91.0847 42.0763 90.9471 42.019 90.8999C42.016 90.8974 42.0132 90.8951 42.0108 90.8931C41.9109 90.8113 41.7943 90.7102 41.6689 90.5986C41.4161 90.3734 41.0887 90.0706 40.7126 89.7163C39.9584 89.0055 38.9811 88.0612 37.9584 87.0566L37.9532 87.0515L37.9481 87.0463L35.3477 84.4418L30.6717 89.1254L25.3726 94.4331V95.715C25.3726 97.3406 25.2661 98.1596 24.8192 99.2817C24.0602 101.258 22.3079 103.051 20.3897 104.001C19.7944 104.299 19.2784 104.54 18.6533 104.671C18.0572 104.796 17.4306 104.806 16.6468 104.806C15.8695 104.806 15.2474 104.795 14.6477 104.672C14.027 104.544 13.5043 104.311 12.8916 104.014C11.3582 103.305 10.4794 102.448 6.18344 98.1258L6.18272 98.1251C4.49401 96.4238 3.20936 95.0928 2.29787 94.0971C1.84262 93.5998 1.47008 93.1748 1.18272 92.8221C0.912946 92.491 0.659014 92.1526 0.496891 91.8459L0.496882 91.8459L0.494196 91.8408C-1.28113 88.4504 -0.635131 84.2396 2.07861 81.4698C3.94781 79.5285 6.67801 78.6646 9.4703 78.9843C9.47177 78.9845 9.47324 78.9847 9.47472 78.9848L9.82919 79.0236L15.1366 73.7254L15.1384 73.7237L19.9115 68.975L17.2693 66.3145C17.2688 66.314 17.2683 66.3135 17.2678 66.313C16.241 65.2846 15.2813 64.2936 14.56 63.5263C14.2001 63.1435 13.8937 62.81 13.6659 62.5524C13.5529 62.4247 13.4511 62.3064 13.369 62.2054L13.3622 62.1971C13.3133 62.1372 13.1693 61.9608 13.0723 61.7665C12.8473 61.3158 12.699 60.6736 12.699 60.1551C12.699 59.2809 13.0604 58.4969 13.5182 57.8603C13.9817 57.2159 14.61 56.6278 15.3185 56.1099C16.7358 55.0739 18.6355 54.2008 20.7039 53.6799C23.4724 52.9768 26.5668 53.2086 29.4105 54.2804C29.4983 54.1934 29.5967 54.0948 29.7064 53.9835C30.3858 53.2946 31.4279 52.1967 32.9159 50.5985C35.8883 47.406 40.6024 42.2582 47.6718 34.4909L47.6719 34.4907C52.463 29.2283 56.9111 24.3385 60.3375 20.5717C64.1893 16.3373 66.75 13.5221 67.0559 13.1925C67.3572 12.8528 67.7236 12.6085 68.2073 12.3623C68.6897 12.1168 69.3886 11.8206 70.4339 11.4142C72.5378 10.5961 76.247 9.25428 82.916 6.86444ZM88.4276 23.1235L88.428 23.1222C88.7981 22.0572 89.1522 21.0334 89.4795 20.0829C88.5379 21.0186 87.4653 22.0862 86.2799 23.2674C81.574 27.9563 75.0933 34.4328 67.9757 41.5618L43.1462 66.4315L44.1784 67.4654L45.2748 68.5433L64.3949 51.0842L64.3959 51.0833C69.9462 46.0241 75.0557 41.3475 78.8162 37.8922C80.6967 36.1643 82.2388 34.7427 83.3298 33.7316C83.8756 33.2258 84.3066 32.8244 84.61 32.5394C84.804 32.3572 84.9227 32.2438 84.9858 32.1835C85.0345 32.1369 85.0501 32.122 85.0416 32.1316L85.0611 32.1096L85.0681 32.1023C85.0738 32.0933 85.1333 32.0106 85.2484 31.7755C85.3937 31.4789 85.5871 31.026 85.8563 30.3304C86.3932 28.9425 87.1825 26.7174 88.4276 23.1235ZM9.45478 87.2723L9.45181 87.2698C9.20533 87.0617 9.03463 86.9228 8.90088 86.8239C8.7694 86.7267 8.70822 86.6943 8.68648 86.6841C8.68571 86.6837 8.685 86.6834 8.68433 86.6831C8.6775 86.6798 8.67538 86.6788 8.65728 86.6759C8.61961 86.67 8.54238 86.6627 8.36349 86.6627C7.97348 86.6627 7.75428 86.7467 7.63206 86.8242C7.51955 86.8956 7.39552 87.0196 7.29122 87.283C7.1557 87.6267 7.14409 87.7201 7.14326 87.7363C7.1507 87.7676 7.18521 87.8689 7.32055 88.076C7.80091 88.8107 8.92794 89.9886 11.4281 92.523C13.757 94.8756 15.0235 96.1041 15.8539 96.7334C16.2553 97.0375 16.4549 97.1219 16.5383 97.1471C16.5781 97.1591 16.6147 97.17 16.756 97.1446C16.9762 97.099 17.2554 96.9432 17.4856 96.6813C17.7093 96.4267 17.782 96.1943 17.7897 96.07C17.7891 96.066 17.7883 96.0612 17.7873 96.0555C17.7812 96.0192 17.77 95.9674 17.7529 95.9046C17.7256 95.8048 17.6927 95.7121 17.6631 95.6423C17.6607 95.6392 17.6582 95.636 17.6556 95.6325C17.6098 95.5733 17.5396 95.4872 17.4416 95.3724C17.2469 95.1441 16.9755 94.8404 16.6427 94.4781C15.979 93.7557 15.1017 92.8332 14.1739 91.8796C12.2961 89.9494 10.2975 87.9803 9.45478 87.2723ZM7.14158 87.7254C7.14125 87.7252 7.14144 87.7285 7.1431 87.7356C7.14273 87.7291 7.1419 87.7255 7.14158 87.7254ZM25.533 83.3576L29.8992 78.9844L27.6674 76.7491C26.7809 75.8611 25.9683 75.0567 25.3677 74.4717C25.1782 74.6568 24.9653 74.8658 24.7316 75.0958C23.7248 76.0872 22.3474 77.457 20.8414 78.9654L16.4165 83.3975L18.5895 85.574C19.4742 86.4602 20.2909 87.2586 20.8965 87.8317C20.9116 87.8459 20.9264 87.86 20.9412 87.8739C21.1492 87.6762 21.3873 87.4475 21.6519 87.1913C22.6645 86.2111 24.0386 84.8544 25.533 83.3576Z" fill="black" stroke="white" stroke-width="3"/>
<mask id="path-2-outside-1_109_22" maskUnits="userSpaceOnUse" x="112" y="24" width="396" height="57" fill="black">
<rect fill="white" x="112" y="24" width="396" height="57"/>
<path d="M167.612 73.0079C167.646 73.2462 167.663 73.4675 167.663 73.6718C167.663 74.9994 166.695 75.9866 164.757 76.6334C163.432 77.076 162.004 77.2972 160.475 77.2972C157.96 77.2972 156.702 76.3781 156.702 74.5398C156.702 74.3015 156.719 73.9441 156.753 73.4675C156.821 72.9569 156.855 72.5994 156.855 72.3952C156.855 71.3399 156.328 70.8122 155.275 70.8122C155.309 70.8122 154.34 71.3739 152.369 72.4973C150.092 73.825 147.866 74.8632 145.69 75.6122C142.564 76.7356 139.539 77.2972 136.616 77.2972C130.532 77.2972 125.4 75.2717 121.22 71.2207C117.073 67.1697 115 62.0634 115 55.9018C115 49.5359 117.685 44.0381 123.055 39.4084C127.371 35.6978 133.047 32.7701 140.083 30.6255C145.792 28.8893 150.907 28.0213 155.428 28.0213C158.079 28.0213 160.56 28.6 162.871 29.7574C165.828 31.2212 167.306 33.2808 167.306 35.9361C167.306 38.285 166.236 40.2594 164.095 41.8594C162.123 43.3572 159.948 44.1062 157.569 44.1062C157.297 43.7998 157.161 43.4083 157.161 42.9317C157.161 42.6594 157.212 42.2339 157.314 41.6551C157.416 41.0424 157.467 40.5658 157.467 40.2254C157.467 39.4084 157.195 38.6935 156.651 38.0807C155.02 36.3446 153.338 35.1871 151.604 34.6084C150.415 34.1999 148.783 33.9957 146.71 33.9957C141.442 33.9957 136.548 35.3573 132.028 38.0807C126.386 41.4849 123.565 46.1317 123.565 52.021C123.565 56.5826 125.349 60.974 128.918 65.1953C132.724 69.6548 137.024 71.8846 141.816 71.8846C144.127 71.8846 147.016 71.0675 150.483 69.4335C153.983 67.7995 155.938 66.3016 156.345 64.94C156.583 64.191 156.702 62.6081 156.702 60.1911C156.702 60.0549 156.719 59.7145 156.753 59.1698C156.821 58.6251 156.855 58.1826 156.855 57.8422C156.855 55.5954 155.989 54.472 154.255 54.472C154.051 54.472 152.522 54.8294 149.667 55.5443C146.812 56.2252 145.266 56.5656 145.028 56.5656C144.518 56.5656 144.008 56.4294 143.498 56.1571C142.988 55.8848 142.734 55.5443 142.734 55.1358C142.734 54.5231 143.124 53.7912 143.906 52.9401C144.722 52.0891 145.487 51.5954 146.2 51.4593C148.579 50.9827 151.893 50.455 156.142 49.8763C159.982 49.2976 162.106 49.0082 162.514 49.0082C165.879 49.0082 167.476 50.0125 167.306 52.021L167.612 73.0079Z"/>
<path d="M210.783 74.0292C210.783 74.7101 209.356 75.3909 206.501 76.0717C204.223 76.6164 202.745 76.8887 202.065 76.8887H184.63C183.78 76.8887 183.168 76.327 182.795 75.2037C182.557 74.4888 182.438 73.7569 182.438 73.0079V56.872C182.438 56.7358 182.472 56.4805 182.54 56.106C182.608 55.7316 182.659 55.4933 182.693 55.3911C182.693 55.1869 182.676 54.8805 182.642 54.472C182.608 54.0635 182.591 53.8252 182.591 53.7571V49.2125C182.591 49.6891 182.625 48.5316 182.693 45.7402C182.727 43.3572 182.727 41.6211 182.693 40.5317C182.659 39.8849 182.302 39.3743 181.622 38.9999C181.146 38.7275 180.211 38.5573 178.818 38.4892C177.56 38.4211 176.592 38.1318 175.912 37.6211V36.8552H187.842C189.031 36.8552 189.728 37.6382 189.932 39.2041L190.238 72.3952C190.238 72.6335 190.374 72.9058 190.646 73.2122C190.951 73.5186 191.478 73.7058 192.226 73.7739C192.736 73.7739 193.246 73.7909 193.755 73.825C196.202 74.0973 198.735 74.2335 201.352 74.2335C203.017 74.2335 204.393 74.1654 205.481 74.0292C205.957 73.9952 206.789 73.825 207.979 73.5186C209.033 73.2462 209.627 73.1101 209.763 73.1101C209.967 73.1101 210.307 73.2292 210.783 73.4675V74.0292Z"/>
<path d="M249.847 76.5313C249.711 76.6334 249.542 76.7526 249.338 76.8887C248.93 76.9228 247.519 76.9398 245.106 76.9398C242.523 76.9398 241.113 76.9228 240.875 76.8887C240.297 76.8547 239.549 76.293 238.632 75.2037C238.326 74.8632 237.884 74.2845 237.306 73.4675C237.136 73.1611 236.949 72.8207 236.745 72.4462C236.541 72.0718 236.236 71.8846 235.828 71.8846C235.182 71.8846 233.517 72.7526 230.832 74.4888C229.132 75.6122 227.671 76.3271 226.447 76.6334C225.699 76.8377 224.476 76.9398 222.777 76.9398C220.567 76.9398 218.715 76.7185 217.22 76.276C216.472 76.0717 215.622 75.5441 214.671 74.693C213.719 73.8079 213.243 72.9909 213.243 72.242C213.243 71.7654 215.503 68.7697 220.024 63.2549C220.771 62.4379 221.74 61.3315 222.93 59.9358C222.998 59.8336 224.323 58.3528 226.906 55.4933C227.11 55.289 227.212 54.9826 227.212 54.5741C227.212 53.1103 225.818 50.8125 223.032 47.6806C222.828 47.4763 222.556 47.3061 222.216 47.17C221.91 47.0338 221.23 46.9146 220.177 46.8125C219.259 46.7104 218.579 46.4721 218.137 46.0976V45.5359C218.443 45.3317 218.817 45.2125 219.259 45.1785L222.216 45.0253C222.318 45.0253 222.709 45.0083 223.388 44.9742C224.034 44.9742 224.408 44.9742 224.51 44.9742C224.612 44.9742 224.969 44.9913 225.581 45.0253C226.192 45.0253 226.549 45.0253 226.651 45.0253C229.71 45.0253 232.837 48.1061 236.032 54.2677C236.643 55.289 237.527 56.8379 238.683 58.9145C239.668 61.0592 241.164 64.2591 243.169 68.5144C244.936 72.3271 246.704 74.4888 248.471 74.9994C248.675 75.0675 249.134 75.3398 249.847 75.8164V76.5313ZM234.655 68.5654C234.655 67.9867 233.5 65.4676 231.188 61.0081C230.373 59.4081 229.71 58.5741 229.2 58.506C228.351 59.1528 226.787 60.8209 224.51 63.5102C223.966 64.157 223.643 64.5825 223.541 64.7868C223.032 65.4676 222.505 66.1485 221.961 66.8293C220.975 68.2591 220.482 69.2974 220.482 69.9442C220.482 70.7612 221.06 71.5271 222.216 72.242C223.235 72.8207 224.136 73.1101 224.918 73.1101C226.175 73.1101 227.739 72.7696 229.608 72.0888C230.118 71.9186 231.018 71.476 232.31 70.7612C232.548 70.591 232.837 70.3697 233.177 70.0973C234.162 69.4165 234.655 68.9059 234.655 68.5654Z"/>
<path d="M318.408 76.8377C317.694 77.1441 316.879 77.2972 315.961 77.2972C313.548 77.2972 311.424 76.8377 309.589 75.9185C309.589 75.8505 309.623 75.493 309.69 74.8462C309.758 74.3356 309.758 73.9441 309.69 73.6718C309.385 72.5484 309.028 71.5952 308.62 70.8122C307.736 69.4165 306.479 67.425 304.847 64.8378C304.439 64.191 303.284 62.7272 301.381 60.4464C299.171 57.7911 297.846 56.4635 297.404 56.4635C296.656 56.4635 295.076 59.5443 292.663 65.7059C291.575 68.4633 290.012 71.7994 287.973 75.7143C287.735 76.1909 287.174 76.4292 286.29 76.4292C285.577 76.4292 284.778 76.1398 283.894 75.5611C283.011 74.9483 282.569 74.3186 282.569 73.6718C282.569 73.5016 282.824 72.9909 283.333 72.1399C283.843 71.2548 284.098 70.6931 284.098 70.4548C284.098 69.4335 282.195 66.8463 278.388 62.6932C274.718 58.6762 272.678 56.6677 272.271 56.6677C271.727 56.6677 270.928 57.689 269.875 59.7315C269.331 60.8549 268.804 61.9613 268.294 63.0506C267.105 65.3314 265.932 67.6123 264.776 69.8931C263.247 72.7526 261.701 74.9824 260.137 76.5824C259.797 76.9228 258.999 77.093 257.741 77.093C256.993 77.093 256.416 76.9739 256.008 76.7356C255.43 76.293 254.852 75.8505 254.274 75.4079C253.527 74.8292 252.473 74.0973 251.114 73.2122C251.283 73.0079 251.572 72.9058 251.98 72.9058L252.082 72.9569H252.235C252.473 72.9569 252.83 72.9399 253.306 72.9058C253.816 72.9058 254.155 72.9058 254.325 72.9058C254.733 72.9058 255.039 72.7016 255.243 72.2931C256.365 70.2505 258.132 66.8463 260.545 62.0804C265.915 51.0848 269.79 45.587 272.169 45.587C272.848 45.587 273.749 45.8764 274.871 46.4551C275.992 46.9998 276.553 47.5274 276.553 48.038C276.553 48.2423 276.179 48.9572 275.431 50.1827C274.718 51.3742 274.361 52.072 274.361 52.2763C274.361 52.9231 276.196 55.1188 279.867 58.8634C282.892 61.9613 284.863 63.9017 285.781 64.6846C286.256 64.4804 286.715 63.9187 287.157 62.9996C287.429 62.3187 287.718 61.6379 288.024 60.957C289.451 57.7571 290.879 54.5401 292.306 51.3061C294.617 46.3359 296.232 43.8509 297.149 43.8509C297.693 43.8509 298.645 44.4126 300.004 45.5359C301.364 46.6253 302.043 47.4934 302.043 48.1402C302.043 48.3444 301.67 48.9912 300.922 50.0806C299.936 51.5444 299.341 52.4465 299.137 52.7869L318.408 76.0717V76.8377Z"/>
<path d="M356.875 61.3655C356.875 64.7357 354.989 68.0378 351.216 71.2718C349.687 72.5654 347.511 73.9101 344.69 75.3058C344.419 75.3739 343.994 75.493 343.416 75.6632C341.445 76.6505 339.252 77.1441 336.839 77.1441C336.058 77.1441 334.698 76.9909 332.761 76.6845C332.455 76.5143 331.945 76.276 331.231 75.9696C329.804 75.5611 328.292 74.6249 326.694 73.1611C325.131 71.6633 324.145 70.1995 323.737 68.7697C323.431 67.7825 323.278 66.625 323.278 65.2974C323.278 63.9357 323.431 62.6421 323.737 61.4166C323.941 61.1443 324.179 60.7187 324.451 60.14C324.723 59.0847 325.777 57.3826 327.612 55.0337C328.462 53.9784 329.787 52.7359 331.588 51.3061C332.438 50.6252 333.237 50.1146 333.984 49.7742C336.432 48.5827 337.655 47.6976 337.655 47.1189C337.655 46.8806 337.4 46.5061 336.89 45.9955C336.177 45.3487 335.769 44.9572 335.667 44.8211C335.089 44.2083 334.205 43.2892 333.016 42.0636C328.733 36.3786 326.592 33.2467 326.592 32.668C326.592 31.5446 327.799 30.2851 330.212 28.8893C332.353 27.6298 333.798 27 334.545 27C334.647 27 334.834 27.034 335.106 27.1021C335.378 27.1362 335.582 27.1532 335.718 27.1532C335.718 27.1872 335.735 27.2383 335.769 27.3064C335.837 27.3745 335.871 27.4766 335.871 27.6128C335.871 27.817 335.599 28.0893 335.055 28.4298C334.409 28.8042 334.001 29.1447 333.832 29.451C333.73 29.5872 333.679 29.8425 333.679 30.217C333.679 31.1021 334.749 32.9404 336.89 35.7318C338.488 37.8084 339.728 39.2892 340.612 40.1743C341.292 40.7871 342.328 41.7743 343.722 43.136C346.475 45.8253 349.211 48.4976 351.93 51.1529C354.037 53.3316 355.532 55.5443 356.416 57.7911C356.722 58.5741 356.875 59.7656 356.875 61.3655ZM351.522 63.5102C351.522 62.591 351.063 61.3655 350.145 59.8336C349.398 58.5741 348.633 57.5358 347.851 56.7188C345.914 54.6763 343.943 52.821 341.937 51.1529C341.666 50.9146 341.173 50.7955 340.459 50.7955C338.59 50.7955 336.567 51.7486 334.392 53.655C332.217 55.5273 330.705 57.5528 329.855 59.7315C329.243 61.2975 328.937 62.1825 328.937 62.3868C328.937 63.9527 329.413 65.5868 330.365 67.2889C331.35 68.9569 332.642 70.1995 334.239 71.0165C334.715 71.2548 335.735 71.5101 337.298 71.7824C337.4 71.8165 337.604 71.8846 337.91 71.9867C338.25 72.0888 338.471 72.1399 338.573 72.1399C340.85 72.1399 343.399 71.425 346.22 69.9952C349.755 68.225 351.522 66.0633 351.522 63.5102Z"/>
<path d="M397.798 74.5398C397.594 74.8803 396.523 75.3739 394.586 76.0207C392.683 76.6675 391.323 76.9909 390.507 76.9909C389.148 76.9909 386.548 75.1866 382.707 71.5782C379.037 68.1399 377.201 66.1314 377.201 65.5527C377.201 65.1783 378.238 64.2932 380.311 62.8974C383.132 60.957 385.052 59.5613 386.072 58.7102C388.111 56.906 389.148 55.306 389.182 53.9103C389.216 52.7869 388.859 51.6635 388.111 50.5401C387.262 49.2125 386.208 48.5657 384.95 48.5997C382.537 48.6678 379.869 50.1487 376.947 53.0422C374.126 55.7996 372.715 58.0634 372.715 59.8336V70.5058C372.715 70.5739 372.749 70.7612 372.817 71.0675C372.885 71.3399 372.919 71.5271 372.919 71.6292V75.51C372.919 76.5994 371.322 77.1441 368.127 77.1441C366.36 77.1441 365.255 76.9398 364.813 76.5313C364.813 76.3611 364.966 76.0377 365.272 75.5611C365.578 75.0845 365.748 74.7952 365.782 74.693C366.02 73.7058 366.19 72.6505 366.292 71.5271C366.393 70.0293 366.461 69.1952 366.495 69.025L366.597 48.6508C366.495 47.6295 365.986 46.9657 365.068 46.6593C363.844 46.2508 363.148 45.9444 362.978 45.7402C363.25 45.0594 364.235 44.7189 365.935 44.7189C366.003 44.7189 366.41 44.77 367.158 44.8721C367.94 44.9402 368.365 44.9742 368.433 44.9742C368.535 44.9742 368.671 45.0083 368.841 45.0764C369.044 45.1445 369.197 45.1785 369.299 45.1785C370.251 45.1785 370.846 45.2976 371.084 45.5359C371.458 46.0806 371.848 46.6253 372.256 47.17C372.324 47.6806 372.358 47.9359 372.358 47.9359C372.358 48.004 372.358 48.2253 372.358 48.5997C372.358 48.6338 372.443 49.2636 372.613 50.4891C372.817 51.7146 372.885 52.5656 372.817 53.0422C373.225 53.4848 373.48 53.7061 373.582 53.7061C373.514 53.7061 374.194 52.9401 375.621 51.4082C377.252 49.6721 378.952 48.2763 380.719 47.221C383.268 45.7232 385.851 44.9742 388.468 44.9742C390.236 44.9742 391.646 45.7402 392.7 47.2721C393.617 48.5657 394.076 50.0295 394.076 51.6635C394.076 53.5358 393.192 55.4592 391.425 57.4337C390.303 58.6932 388.672 60.106 386.531 61.6719C384.764 62.9655 383.88 63.6974 383.88 63.8676C383.88 64.3102 385.307 65.8421 388.162 68.4633C390.779 70.8463 392.768 72.5484 394.127 73.5696C394.365 73.7398 394.943 73.842 395.86 73.876C396.676 73.876 397.322 74.0973 397.798 74.5398Z"/>
<path d="M416.897 75.6632C416.897 76.2079 416.387 76.5483 415.367 76.6845C414.62 76.7866 413.498 76.8887 412.003 76.9909C411.901 76.9909 411.374 77.0419 410.422 77.1441C409.471 77.2462 408.961 77.2972 408.893 77.2972C407.771 77.2972 407.125 77.0079 406.956 76.4292C406.718 75.6122 406.599 75.0334 406.599 74.693V68.3101C406.599 68.242 406.616 67.9697 406.65 67.4931C406.718 67.0165 406.752 66.7612 406.752 66.7272V64.6846C406.752 64.7187 406.735 64.4123 406.701 63.7655C406.667 63.1527 406.667 62.6932 406.701 62.3868C406.701 61.9443 406.735 61.3145 406.803 60.4975C406.871 59.6464 406.905 59.2039 406.905 59.1698V56.6167L407.006 52.838C406.905 52.055 406.854 51.204 406.854 50.2848C406.854 48.4465 406.463 47.3742 405.681 47.0678C405.341 46.9657 404.355 46.8125 402.724 46.6083C401.501 46.4721 400.889 46.2508 400.889 45.9444C400.889 45.5019 401.518 45.2296 402.775 45.1274C406.684 44.787 408.978 44.6168 409.657 44.6168C410.235 44.6168 410.898 44.753 411.646 45.0253C412.563 45.3317 413.022 45.7232 413.022 46.1998V55.6975C413.022 55.6635 413.022 56.1911 413.022 57.2805C412.988 58.3698 412.971 59.1528 412.971 59.6294C412.971 59.8336 412.954 60.157 412.92 60.5996C412.886 61.0081 412.869 61.2123 412.869 61.2123V68.974C412.869 69.008 412.92 69.2122 413.022 69.5867C413.158 69.9612 413.226 70.1824 413.226 70.2505V72.3441C413.226 72.6845 413.311 73.1782 413.481 73.825C413.719 74.6079 413.974 75.0164 414.246 75.0505C414.79 75.0845 415.588 75.1526 416.642 75.2547C416.812 75.2888 416.897 75.4249 416.897 75.6632Z"/>
<path d="M466.918 75.7143C466.918 76.0888 466.544 76.3951 465.796 76.6334C465.218 76.8036 464.675 76.8887 464.165 76.8887H461.973C461.361 76.8887 460.732 76.7526 460.086 76.4802C459.305 76.1058 458.863 75.5951 458.761 74.9483C458.795 74.3015 458.693 73.3994 458.455 72.242C458.217 71.7994 457.571 71.408 456.518 71.0675C455.668 70.8292 454.818 70.591 453.969 70.3527C452.779 69.9101 451.063 69.2122 448.82 68.2591C446.406 67.1016 444.639 66.2336 443.517 65.6548C441.24 64.4634 439.337 63.391 437.808 62.4379C436.924 61.6208 435.836 60.7698 434.545 59.8847C433.967 59.8507 433.678 60.2762 433.678 61.1613V72.3952C433.678 75.3909 431.299 76.8887 426.541 76.8887C425.725 76.8887 425.181 76.6505 424.909 76.1739V69.2803L425.929 54.5231C425.929 54.2848 425.946 53.9103 425.98 53.3997C426.014 52.855 426.031 52.4295 426.031 52.1231C426.031 49.4338 425.096 47.8338 423.227 47.3232V46.5572C426.626 45.3998 428.784 44.8211 429.702 44.8211C430.653 44.8211 431.401 45.1615 431.945 45.8423C433.406 47.8848 435.87 51.272 439.337 56.0039C441.002 58.1826 444.061 60.7528 448.514 63.7144C452.83 66.574 455.736 68.0548 457.231 68.1569C458.081 68.225 458.506 67.4761 458.506 65.9102C458.506 61.9272 457.979 55.7826 456.925 47.4763C456.857 47.1019 456.365 46.2849 455.447 45.0253C455.923 44.6508 456.603 44.4636 457.486 44.4636C458.71 44.4636 459.882 44.6338 461.004 44.9742C462.024 45.2806 462.601 45.587 462.737 45.8934C464.199 49.4338 465.048 54.5912 465.286 61.3655C465.252 63.4761 465.303 66.625 465.439 70.8122C465.541 72.5143 465.813 73.7398 466.255 74.4888C466.697 75.2037 466.918 75.6122 466.918 75.7143Z"/>
<path d="M504.957 74.2335C505.161 75.2547 504.634 76.0377 503.377 76.5824C502.459 76.9568 501.406 77.1441 500.216 77.1441C498.517 77.1441 497.667 76.5143 497.667 75.2547C497.667 75.0845 497.684 74.8462 497.718 74.5398C497.752 74.1994 497.769 73.9611 497.769 73.825C497.769 73.1441 497.429 72.8037 496.749 72.8037C496.749 72.8037 496.104 73.1782 494.812 73.9271C493.283 74.7781 491.804 75.476 490.377 76.0207C488.27 76.7696 486.247 77.1441 484.31 77.1441C480.232 77.1441 476.799 75.7994 474.012 73.1101C471.259 70.3867 469.883 66.9655 469.883 62.8464C469.883 58.6251 471.667 54.9656 475.236 51.8678C478.124 49.3827 481.914 47.4253 486.604 45.9955C490.411 44.8381 493.81 44.2594 496.8 44.2594C498.602 44.2594 500.267 44.6338 501.797 45.3828C503.768 46.37 504.753 47.7487 504.753 49.5189C504.753 51.0848 504.057 52.3954 502.663 53.4507C501.304 54.472 499.842 54.9826 498.279 54.9826C498.075 54.7784 497.973 54.5231 497.973 54.2167C497.973 54.0465 498.007 53.7571 498.075 53.3486C498.143 52.9401 498.177 52.6167 498.177 52.3784C498.177 51.8337 498.007 51.3571 497.667 50.9486C496.579 49.7912 495.458 49.0253 494.302 48.6508C493.487 48.3785 492.399 48.2423 491.04 48.2423C487.505 48.2423 484.242 49.1444 481.251 50.9486C477.479 53.2295 475.592 56.3273 475.592 60.2421C475.592 63.3059 476.782 66.2336 479.161 69.025C481.71 71.9867 484.582 73.4675 487.777 73.4675C489.306 73.4675 491.226 72.9399 493.538 71.8846C495.883 70.7952 497.191 69.791 497.463 68.8718C497.599 68.3612 497.667 67.3059 497.667 65.7059C497.667 65.6038 497.684 65.3825 497.718 65.0421C497.752 64.6676 497.769 64.3612 497.769 64.1229C497.769 62.6251 497.191 61.8762 496.036 61.8762C495.9 61.8762 494.88 62.1145 492.977 62.5911C491.074 63.0676 490.054 63.3059 489.918 63.3059C488.864 63.3059 488.338 62.9825 488.338 62.3357C488.338 61.9272 488.609 61.4506 489.153 60.906C489.697 60.3272 490.207 59.9868 490.683 59.8847C492.28 59.5783 494.489 59.2209 497.31 58.8124C499.859 58.4379 501.287 58.2507 501.593 58.2507C503.802 58.2507 504.855 58.9145 504.753 60.2421L504.957 74.2335Z"/>
</mask>
<path d="M167.612 73.0079C167.646 73.2462 167.663 73.4675 167.663 73.6718C167.663 74.9994 166.695 75.9866 164.757 76.6334C163.432 77.076 162.004 77.2972 160.475 77.2972C157.96 77.2972 156.702 76.3781 156.702 74.5398C156.702 74.3015 156.719 73.9441 156.753 73.4675C156.821 72.9569 156.855 72.5994 156.855 72.3952C156.855 71.3399 156.328 70.8122 155.275 70.8122C155.309 70.8122 154.34 71.3739 152.369 72.4973C150.092 73.825 147.866 74.8632 145.69 75.6122C142.564 76.7356 139.539 77.2972 136.616 77.2972C130.532 77.2972 125.4 75.2717 121.22 71.2207C117.073 67.1697 115 62.0634 115 55.9018C115 49.5359 117.685 44.0381 123.055 39.4084C127.371 35.6978 133.047 32.7701 140.083 30.6255C145.792 28.8893 150.907 28.0213 155.428 28.0213C158.079 28.0213 160.56 28.6 162.871 29.7574C165.828 31.2212 167.306 33.2808 167.306 35.9361C167.306 38.285 166.236 40.2594 164.095 41.8594C162.123 43.3572 159.948 44.1062 157.569 44.1062C157.297 43.7998 157.161 43.4083 157.161 42.9317C157.161 42.6594 157.212 42.2339 157.314 41.6551C157.416 41.0424 157.467 40.5658 157.467 40.2254C157.467 39.4084 157.195 38.6935 156.651 38.0807C155.02 36.3446 153.338 35.1871 151.604 34.6084C150.415 34.1999 148.783 33.9957 146.71 33.9957C141.442 33.9957 136.548 35.3573 132.028 38.0807C126.386 41.4849 123.565 46.1317 123.565 52.021C123.565 56.5826 125.349 60.974 128.918 65.1953C132.724 69.6548 137.024 71.8846 141.816 71.8846C144.127 71.8846 147.016 71.0675 150.483 69.4335C153.983 67.7995 155.938 66.3016 156.345 64.94C156.583 64.191 156.702 62.6081 156.702 60.1911C156.702 60.0549 156.719 59.7145 156.753 59.1698C156.821 58.6251 156.855 58.1826 156.855 57.8422C156.855 55.5954 155.989 54.472 154.255 54.472C154.051 54.472 152.522 54.8294 149.667 55.5443C146.812 56.2252 145.266 56.5656 145.028 56.5656C144.518 56.5656 144.008 56.4294 143.498 56.1571C142.988 55.8848 142.734 55.5443 142.734 55.1358C142.734 54.5231 143.124 53.7912 143.906 52.9401C144.722 52.0891 145.487 51.5954 146.2 51.4593C148.579 50.9827 151.893 50.455 156.142 49.8763C159.982 49.2976 162.106 49.0082 162.514 49.0082C165.879 49.0082 167.476 50.0125 167.306 52.021L167.612 73.0079Z" fill="black"/>
<path d="M210.783 74.0292C210.783 74.7101 209.356 75.3909 206.501 76.0717C204.223 76.6164 202.745 76.8887 202.065 76.8887H184.63C183.78 76.8887 183.168 76.327 182.795 75.2037C182.557 74.4888 182.438 73.7569 182.438 73.0079V56.872C182.438 56.7358 182.472 56.4805 182.54 56.106C182.608 55.7316 182.659 55.4933 182.693 55.3911C182.693 55.1869 182.676 54.8805 182.642 54.472C182.608 54.0635 182.591 53.8252 182.591 53.7571V49.2125C182.591 49.6891 182.625 48.5316 182.693 45.7402C182.727 43.3572 182.727 41.6211 182.693 40.5317C182.659 39.8849 182.302 39.3743 181.622 38.9999C181.146 38.7275 180.211 38.5573 178.818 38.4892C177.56 38.4211 176.592 38.1318 175.912 37.6211V36.8552H187.842C189.031 36.8552 189.728 37.6382 189.932 39.2041L190.238 72.3952C190.238 72.6335 190.374 72.9058 190.646 73.2122C190.951 73.5186 191.478 73.7058 192.226 73.7739C192.736 73.7739 193.246 73.7909 193.755 73.825C196.202 74.0973 198.735 74.2335 201.352 74.2335C203.017 74.2335 204.393 74.1654 205.481 74.0292C205.957 73.9952 206.789 73.825 207.979 73.5186C209.033 73.2462 209.627 73.1101 209.763 73.1101C209.967 73.1101 210.307 73.2292 210.783 73.4675V74.0292Z" fill="black"/>
<path d="M249.847 76.5313C249.711 76.6334 249.542 76.7526 249.338 76.8887C248.93 76.9228 247.519 76.9398 245.106 76.9398C242.523 76.9398 241.113 76.9228 240.875 76.8887C240.297 76.8547 239.549 76.293 238.632 75.2037C238.326 74.8632 237.884 74.2845 237.306 73.4675C237.136 73.1611 236.949 72.8207 236.745 72.4462C236.541 72.0718 236.236 71.8846 235.828 71.8846C235.182 71.8846 233.517 72.7526 230.832 74.4888C229.132 75.6122 227.671 76.3271 226.447 76.6334C225.699 76.8377 224.476 76.9398 222.777 76.9398C220.567 76.9398 218.715 76.7185 217.22 76.276C216.472 76.0717 215.622 75.5441 214.671 74.693C213.719 73.8079 213.243 72.9909 213.243 72.242C213.243 71.7654 215.503 68.7697 220.024 63.2549C220.771 62.4379 221.74 61.3315 222.93 59.9358C222.998 59.8336 224.323 58.3528 226.906 55.4933C227.11 55.289 227.212 54.9826 227.212 54.5741C227.212 53.1103 225.818 50.8125 223.032 47.6806C222.828 47.4763 222.556 47.3061 222.216 47.17C221.91 47.0338 221.23 46.9146 220.177 46.8125C219.259 46.7104 218.579 46.4721 218.137 46.0976V45.5359C218.443 45.3317 218.817 45.2125 219.259 45.1785L222.216 45.0253C222.318 45.0253 222.709 45.0083 223.388 44.9742C224.034 44.9742 224.408 44.9742 224.51 44.9742C224.612 44.9742 224.969 44.9913 225.581 45.0253C226.192 45.0253 226.549 45.0253 226.651 45.0253C229.71 45.0253 232.837 48.1061 236.032 54.2677C236.643 55.289 237.527 56.8379 238.683 58.9145C239.668 61.0592 241.164 64.2591 243.169 68.5144C244.936 72.3271 246.704 74.4888 248.471 74.9994C248.675 75.0675 249.134 75.3398 249.847 75.8164V76.5313ZM234.655 68.5654C234.655 67.9867 233.5 65.4676 231.188 61.0081C230.373 59.4081 229.71 58.5741 229.2 58.506C228.351 59.1528 226.787 60.8209 224.51 63.5102C223.966 64.157 223.643 64.5825 223.541 64.7868C223.032 65.4676 222.505 66.1485 221.961 66.8293C220.975 68.2591 220.482 69.2974 220.482 69.9442C220.482 70.7612 221.06 71.5271 222.216 72.242C223.235 72.8207 224.136 73.1101 224.918 73.1101C226.175 73.1101 227.739 72.7696 229.608 72.0888C230.118 71.9186 231.018 71.476 232.31 70.7612C232.548 70.591 232.837 70.3697 233.177 70.0973C234.162 69.4165 234.655 68.9059 234.655 68.5654Z" fill="black"/>
<path d="M318.408 76.8377C317.694 77.1441 316.879 77.2972 315.961 77.2972C313.548 77.2972 311.424 76.8377 309.589 75.9185C309.589 75.8505 309.623 75.493 309.69 74.8462C309.758 74.3356 309.758 73.9441 309.69 73.6718C309.385 72.5484 309.028 71.5952 308.62 70.8122C307.736 69.4165 306.479 67.425 304.847 64.8378C304.439 64.191 303.284 62.7272 301.381 60.4464C299.171 57.7911 297.846 56.4635 297.404 56.4635C296.656 56.4635 295.076 59.5443 292.663 65.7059C291.575 68.4633 290.012 71.7994 287.973 75.7143C287.735 76.1909 287.174 76.4292 286.29 76.4292C285.577 76.4292 284.778 76.1398 283.894 75.5611C283.011 74.9483 282.569 74.3186 282.569 73.6718C282.569 73.5016 282.824 72.9909 283.333 72.1399C283.843 71.2548 284.098 70.6931 284.098 70.4548C284.098 69.4335 282.195 66.8463 278.388 62.6932C274.718 58.6762 272.678 56.6677 272.271 56.6677C271.727 56.6677 270.928 57.689 269.875 59.7315C269.331 60.8549 268.804 61.9613 268.294 63.0506C267.105 65.3314 265.932 67.6123 264.776 69.8931C263.247 72.7526 261.701 74.9824 260.137 76.5824C259.797 76.9228 258.999 77.093 257.741 77.093C256.993 77.093 256.416 76.9739 256.008 76.7356C255.43 76.293 254.852 75.8505 254.274 75.4079C253.527 74.8292 252.473 74.0973 251.114 73.2122C251.283 73.0079 251.572 72.9058 251.98 72.9058L252.082 72.9569H252.235C252.473 72.9569 252.83 72.9399 253.306 72.9058C253.816 72.9058 254.155 72.9058 254.325 72.9058C254.733 72.9058 255.039 72.7016 255.243 72.2931C256.365 70.2505 258.132 66.8463 260.545 62.0804C265.915 51.0848 269.79 45.587 272.169 45.587C272.848 45.587 273.749 45.8764 274.871 46.4551C275.992 46.9998 276.553 47.5274 276.553 48.038C276.553 48.2423 276.179 48.9572 275.431 50.1827C274.718 51.3742 274.361 52.072 274.361 52.2763C274.361 52.9231 276.196 55.1188 279.867 58.8634C282.892 61.9613 284.863 63.9017 285.781 64.6846C286.256 64.4804 286.715 63.9187 287.157 62.9996C287.429 62.3187 287.718 61.6379 288.024 60.957C289.451 57.7571 290.879 54.5401 292.306 51.3061C294.617 46.3359 296.232 43.8509 297.149 43.8509C297.693 43.8509 298.645 44.4126 300.004 45.5359C301.364 46.6253 302.043 47.4934 302.043 48.1402C302.043 48.3444 301.67 48.9912 300.922 50.0806C299.936 51.5444 299.341 52.4465 299.137 52.7869L318.408 76.0717V76.8377Z" fill="black"/>
<path d="M356.875 61.3655C356.875 64.7357 354.989 68.0378 351.216 71.2718C349.687 72.5654 347.511 73.9101 344.69 75.3058C344.419 75.3739 343.994 75.493 343.416 75.6632C341.445 76.6505 339.252 77.1441 336.839 77.1441C336.058 77.1441 334.698 76.9909 332.761 76.6845C332.455 76.5143 331.945 76.276 331.231 75.9696C329.804 75.5611 328.292 74.6249 326.694 73.1611C325.131 71.6633 324.145 70.1995 323.737 68.7697C323.431 67.7825 323.278 66.625 323.278 65.2974C323.278 63.9357 323.431 62.6421 323.737 61.4166C323.941 61.1443 324.179 60.7187 324.451 60.14C324.723 59.0847 325.777 57.3826 327.612 55.0337C328.462 53.9784 329.787 52.7359 331.588 51.3061C332.438 50.6252 333.237 50.1146 333.984 49.7742C336.432 48.5827 337.655 47.6976 337.655 47.1189C337.655 46.8806 337.4 46.5061 336.89 45.9955C336.177 45.3487 335.769 44.9572 335.667 44.8211C335.089 44.2083 334.205 43.2892 333.016 42.0636C328.733 36.3786 326.592 33.2467 326.592 32.668C326.592 31.5446 327.799 30.2851 330.212 28.8893C332.353 27.6298 333.798 27 334.545 27C334.647 27 334.834 27.034 335.106 27.1021C335.378 27.1362 335.582 27.1532 335.718 27.1532C335.718 27.1872 335.735 27.2383 335.769 27.3064C335.837 27.3745 335.871 27.4766 335.871 27.6128C335.871 27.817 335.599 28.0893 335.055 28.4298C334.409 28.8042 334.001 29.1447 333.832 29.451C333.73 29.5872 333.679 29.8425 333.679 30.217C333.679 31.1021 334.749 32.9404 336.89 35.7318C338.488 37.8084 339.728 39.2892 340.612 40.1743C341.292 40.7871 342.328 41.7743 343.722 43.136C346.475 45.8253 349.211 48.4976 351.93 51.1529C354.037 53.3316 355.532 55.5443 356.416 57.7911C356.722 58.5741 356.875 59.7656 356.875 61.3655ZM351.522 63.5102C351.522 62.591 351.063 61.3655 350.145 59.8336C349.398 58.5741 348.633 57.5358 347.851 56.7188C345.914 54.6763 343.943 52.821 341.937 51.1529C341.666 50.9146 341.173 50.7955 340.459 50.7955C338.59 50.7955 336.567 51.7486 334.392 53.655C332.217 55.5273 330.705 57.5528 329.855 59.7315C329.243 61.2975 328.937 62.1825 328.937 62.3868C328.937 63.9527 329.413 65.5868 330.365 67.2889C331.35 68.9569 332.642 70.1995 334.239 71.0165C334.715 71.2548 335.735 71.5101 337.298 71.7824C337.4 71.8165 337.604 71.8846 337.91 71.9867C338.25 72.0888 338.471 72.1399 338.573 72.1399C340.85 72.1399 343.399 71.425 346.22 69.9952C349.755 68.225 351.522 66.0633 351.522 63.5102Z" fill="black"/>
<path d="M397.798 74.5398C397.594 74.8803 396.523 75.3739 394.586 76.0207C392.683 76.6675 391.323 76.9909 390.507 76.9909C389.148 76.9909 386.548 75.1866 382.707 71.5782C379.037 68.1399 377.201 66.1314 377.201 65.5527C377.201 65.1783 378.238 64.2932 380.311 62.8974C383.132 60.957 385.052 59.5613 386.072 58.7102C388.111 56.906 389.148 55.306 389.182 53.9103C389.216 52.7869 388.859 51.6635 388.111 50.5401C387.262 49.2125 386.208 48.5657 384.95 48.5997C382.537 48.6678 379.869 50.1487 376.947 53.0422C374.126 55.7996 372.715 58.0634 372.715 59.8336V70.5058C372.715 70.5739 372.749 70.7612 372.817 71.0675C372.885 71.3399 372.919 71.5271 372.919 71.6292V75.51C372.919 76.5994 371.322 77.1441 368.127 77.1441C366.36 77.1441 365.255 76.9398 364.813 76.5313C364.813 76.3611 364.966 76.0377 365.272 75.5611C365.578 75.0845 365.748 74.7952 365.782 74.693C366.02 73.7058 366.19 72.6505 366.292 71.5271C366.393 70.0293 366.461 69.1952 366.495 69.025L366.597 48.6508C366.495 47.6295 365.986 46.9657 365.068 46.6593C363.844 46.2508 363.148 45.9444 362.978 45.7402C363.25 45.0594 364.235 44.7189 365.935 44.7189C366.003 44.7189 366.41 44.77 367.158 44.8721C367.94 44.9402 368.365 44.9742 368.433 44.9742C368.535 44.9742 368.671 45.0083 368.841 45.0764C369.044 45.1445 369.197 45.1785 369.299 45.1785C370.251 45.1785 370.846 45.2976 371.084 45.5359C371.458 46.0806 371.848 46.6253 372.256 47.17C372.324 47.6806 372.358 47.9359 372.358 47.9359C372.358 48.004 372.358 48.2253 372.358 48.5997C372.358 48.6338 372.443 49.2636 372.613 50.4891C372.817 51.7146 372.885 52.5656 372.817 53.0422C373.225 53.4848 373.48 53.7061 373.582 53.7061C373.514 53.7061 374.194 52.9401 375.621 51.4082C377.252 49.6721 378.952 48.2763 380.719 47.221C383.268 45.7232 385.851 44.9742 388.468 44.9742C390.236 44.9742 391.646 45.7402 392.7 47.2721C393.617 48.5657 394.076 50.0295 394.076 51.6635C394.076 53.5358 393.192 55.4592 391.425 57.4337C390.303 58.6932 388.672 60.106 386.531 61.6719C384.764 62.9655 383.88 63.6974 383.88 63.8676C383.88 64.3102 385.307 65.8421 388.162 68.4633C390.779 70.8463 392.768 72.5484 394.127 73.5696C394.365 73.7398 394.943 73.842 395.86 73.876C396.676 73.876 397.322 74.0973 397.798 74.5398Z" fill="black"/>
<path d="M416.897 75.6632C416.897 76.2079 416.387 76.5483 415.367 76.6845C414.62 76.7866 413.498 76.8887 412.003 76.9909C411.901 76.9909 411.374 77.0419 410.422 77.1441C409.471 77.2462 408.961 77.2972 408.893 77.2972C407.771 77.2972 407.125 77.0079 406.956 76.4292C406.718 75.6122 406.599 75.0334 406.599 74.693V68.3101C406.599 68.242 406.616 67.9697 406.65 67.4931C406.718 67.0165 406.752 66.7612 406.752 66.7272V64.6846C406.752 64.7187 406.735 64.4123 406.701 63.7655C406.667 63.1527 406.667 62.6932 406.701 62.3868C406.701 61.9443 406.735 61.3145 406.803 60.4975C406.871 59.6464 406.905 59.2039 406.905 59.1698V56.6167L407.006 52.838C406.905 52.055 406.854 51.204 406.854 50.2848C406.854 48.4465 406.463 47.3742 405.681 47.0678C405.341 46.9657 404.355 46.8125 402.724 46.6083C401.501 46.4721 400.889 46.2508 400.889 45.9444C400.889 45.5019 401.518 45.2296 402.775 45.1274C406.684 44.787 408.978 44.6168 409.657 44.6168C410.235 44.6168 410.898 44.753 411.646 45.0253C412.563 45.3317 413.022 45.7232 413.022 46.1998V55.6975C413.022 55.6635 413.022 56.1911 413.022 57.2805C412.988 58.3698 412.971 59.1528 412.971 59.6294C412.971 59.8336 412.954 60.157 412.92 60.5996C412.886 61.0081 412.869 61.2123 412.869 61.2123V68.974C412.869 69.008 412.92 69.2122 413.022 69.5867C413.158 69.9612 413.226 70.1824 413.226 70.2505V72.3441C413.226 72.6845 413.311 73.1782 413.481 73.825C413.719 74.6079 413.974 75.0164 414.246 75.0505C414.79 75.0845 415.588 75.1526 416.642 75.2547C416.812 75.2888 416.897 75.4249 416.897 75.6632Z" fill="black"/>
<path d="M466.918 75.7143C466.918 76.0888 466.544 76.3951 465.796 76.6334C465.218 76.8036 464.675 76.8887 464.165 76.8887H461.973C461.361 76.8887 460.732 76.7526 460.086 76.4802C459.305 76.1058 458.863 75.5951 458.761 74.9483C458.795 74.3015 458.693 73.3994 458.455 72.242C458.217 71.7994 457.571 71.408 456.518 71.0675C455.668 70.8292 454.818 70.591 453.969 70.3527C452.779 69.9101 451.063 69.2122 448.82 68.2591C446.406 67.1016 444.639 66.2336 443.517 65.6548C441.24 64.4634 439.337 63.391 437.808 62.4379C436.924 61.6208 435.836 60.7698 434.545 59.8847C433.967 59.8507 433.678 60.2762 433.678 61.1613V72.3952C433.678 75.3909 431.299 76.8887 426.541 76.8887C425.725 76.8887 425.181 76.6505 424.909 76.1739V69.2803L425.929 54.5231C425.929 54.2848 425.946 53.9103 425.98 53.3997C426.014 52.855 426.031 52.4295 426.031 52.1231C426.031 49.4338 425.096 47.8338 423.227 47.3232V46.5572C426.626 45.3998 428.784 44.8211 429.702 44.8211C430.653 44.8211 431.401 45.1615 431.945 45.8423C433.406 47.8848 435.87 51.272 439.337 56.0039C441.002 58.1826 444.061 60.7528 448.514 63.7144C452.83 66.574 455.736 68.0548 457.231 68.1569C458.081 68.225 458.506 67.4761 458.506 65.9102C458.506 61.9272 457.979 55.7826 456.925 47.4763C456.857 47.1019 456.365 46.2849 455.447 45.0253C455.923 44.6508 456.603 44.4636 457.486 44.4636C458.71 44.4636 459.882 44.6338 461.004 44.9742C462.024 45.2806 462.601 45.587 462.737 45.8934C464.199 49.4338 465.048 54.5912 465.286 61.3655C465.252 63.4761 465.303 66.625 465.439 70.8122C465.541 72.5143 465.813 73.7398 466.255 74.4888C466.697 75.2037 466.918 75.6122 466.918 75.7143Z" fill="black"/>
<path d="M504.957 74.2335C505.161 75.2547 504.634 76.0377 503.377 76.5824C502.459 76.9568 501.406 77.1441 500.216 77.1441C498.517 77.1441 497.667 76.5143 497.667 75.2547C497.667 75.0845 497.684 74.8462 497.718 74.5398C497.752 74.1994 497.769 73.9611 497.769 73.825C497.769 73.1441 497.429 72.8037 496.749 72.8037C496.749 72.8037 496.104 73.1782 494.812 73.9271C493.283 74.7781 491.804 75.476 490.377 76.0207C488.27 76.7696 486.247 77.1441 484.31 77.1441C480.232 77.1441 476.799 75.7994 474.012 73.1101C471.259 70.3867 469.883 66.9655 469.883 62.8464C469.883 58.6251 471.667 54.9656 475.236 51.8678C478.124 49.3827 481.914 47.4253 486.604 45.9955C490.411 44.8381 493.81 44.2594 496.8 44.2594C498.602 44.2594 500.267 44.6338 501.797 45.3828C503.768 46.37 504.753 47.7487 504.753 49.5189C504.753 51.0848 504.057 52.3954 502.663 53.4507C501.304 54.472 499.842 54.9826 498.279 54.9826C498.075 54.7784 497.973 54.5231 497.973 54.2167C497.973 54.0465 498.007 53.7571 498.075 53.3486C498.143 52.9401 498.177 52.6167 498.177 52.3784C498.177 51.8337 498.007 51.3571 497.667 50.9486C496.579 49.7912 495.458 49.0253 494.302 48.6508C493.487 48.3785 492.399 48.2423 491.04 48.2423C487.505 48.2423 484.242 49.1444 481.251 50.9486C477.479 53.2295 475.592 56.3273 475.592 60.2421C475.592 63.3059 476.782 66.2336 479.161 69.025C481.71 71.9867 484.582 73.4675 487.777 73.4675C489.306 73.4675 491.226 72.9399 493.538 71.8846C495.883 70.7952 497.191 69.791 497.463 68.8718C497.599 68.3612 497.667 67.3059 497.667 65.7059C497.667 65.6038 497.684 65.3825 497.718 65.0421C497.752 64.6676 497.769 64.3612 497.769 64.1229C497.769 62.6251 497.191 61.8762 496.036 61.8762C495.9 61.8762 494.88 62.1145 492.977 62.5911C491.074 63.0676 490.054 63.3059 489.918 63.3059C488.864 63.3059 488.338 62.9825 488.338 62.3357C488.338 61.9272 488.609 61.4506 489.153 60.906C489.697 60.3272 490.207 59.9868 490.683 59.8847C492.28 59.5783 494.489 59.2209 497.31 58.8124C499.859 58.4379 501.287 58.2507 501.593 58.2507C503.802 58.2507 504.855 58.9145 504.753 60.2421L504.957 74.2335Z" fill="black"/>
<path d="M167.612 73.0079C167.646 73.2462 167.663 73.4675 167.663 73.6718C167.663 74.9994 166.695 75.9866 164.757 76.6334C163.432 77.076 162.004 77.2972 160.475 77.2972C157.96 77.2972 156.702 76.3781 156.702 74.5398C156.702 74.3015 156.719 73.9441 156.753 73.4675C156.821 72.9569 156.855 72.5994 156.855 72.3952C156.855 71.3399 156.328 70.8122 155.275 70.8122C155.309 70.8122 154.34 71.3739 152.369 72.4973C150.092 73.825 147.866 74.8632 145.69 75.6122C142.564 76.7356 139.539 77.2972 136.616 77.2972C130.532 77.2972 125.4 75.2717 121.22 71.2207C117.073 67.1697 115 62.0634 115 55.9018C115 49.5359 117.685 44.0381 123.055 39.4084C127.371 35.6978 133.047 32.7701 140.083 30.6255C145.792 28.8893 150.907 28.0213 155.428 28.0213C158.079 28.0213 160.56 28.6 162.871 29.7574C165.828 31.2212 167.306 33.2808 167.306 35.9361C167.306 38.285 166.236 40.2594 164.095 41.8594C162.123 43.3572 159.948 44.1062 157.569 44.1062C157.297 43.7998 157.161 43.4083 157.161 42.9317C157.161 42.6594 157.212 42.2339 157.314 41.6551C157.416 41.0424 157.467 40.5658 157.467 40.2254C157.467 39.4084 157.195 38.6935 156.651 38.0807C155.02 36.3446 153.338 35.1871 151.604 34.6084C150.415 34.1999 148.783 33.9957 146.71 33.9957C141.442 33.9957 136.548 35.3573 132.028 38.0807C126.386 41.4849 123.565 46.1317 123.565 52.021C123.565 56.5826 125.349 60.974 128.918 65.1953C132.724 69.6548 137.024 71.8846 141.816 71.8846C144.127 71.8846 147.016 71.0675 150.483 69.4335C153.983 67.7995 155.938 66.3016 156.345 64.94C156.583 64.191 156.702 62.6081 156.702 60.1911C156.702 60.0549 156.719 59.7145 156.753 59.1698C156.821 58.6251 156.855 58.1826 156.855 57.8422C156.855 55.5954 155.989 54.472 154.255 54.472C154.051 54.472 152.522 54.8294 149.667 55.5443C146.812 56.2252 145.266 56.5656 145.028 56.5656C144.518 56.5656 144.008 56.4294 143.498 56.1571C142.988 55.8848 142.734 55.5443 142.734 55.1358C142.734 54.5231 143.124 53.7912 143.906 52.9401C144.722 52.0891 145.487 51.5954 146.2 51.4593C148.579 50.9827 151.893 50.455 156.142 49.8763C159.982 49.2976 162.106 49.0082 162.514 49.0082C165.879 49.0082 167.476 50.0125 167.306 52.021L167.612 73.0079Z" stroke="white" stroke-width="6" mask="url(#path-2-outside-1_109_22)"/>
<path d="M210.783 74.0292C210.783 74.7101 209.356 75.3909 206.501 76.0717C204.223 76.6164 202.745 76.8887 202.065 76.8887H184.63C183.78 76.8887 183.168 76.327 182.795 75.2037C182.557 74.4888 182.438 73.7569 182.438 73.0079V56.872C182.438 56.7358 182.472 56.4805 182.54 56.106C182.608 55.7316 182.659 55.4933 182.693 55.3911C182.693 55.1869 182.676 54.8805 182.642 54.472C182.608 54.0635 182.591 53.8252 182.591 53.7571V49.2125C182.591 49.6891 182.625 48.5316 182.693 45.7402C182.727 43.3572 182.727 41.6211 182.693 40.5317C182.659 39.8849 182.302 39.3743 181.622 38.9999C181.146 38.7275 180.211 38.5573 178.818 38.4892C177.56 38.4211 176.592 38.1318 175.912 37.6211V36.8552H187.842C189.031 36.8552 189.728 37.6382 189.932 39.2041L190.238 72.3952C190.238 72.6335 190.374 72.9058 190.646 73.2122C190.951 73.5186 191.478 73.7058 192.226 73.7739C192.736 73.7739 193.246 73.7909 193.755 73.825C196.202 74.0973 198.735 74.2335 201.352 74.2335C203.017 74.2335 204.393 74.1654 205.481 74.0292C205.957 73.9952 206.789 73.825 207.979 73.5186C209.033 73.2462 209.627 73.1101 209.763 73.1101C209.967 73.1101 210.307 73.2292 210.783 73.4675V74.0292Z" stroke="white" stroke-width="6" mask="url(#path-2-outside-1_109_22)"/>
<path d="M249.847 76.5313C249.711 76.6334 249.542 76.7526 249.338 76.8887C248.93 76.9228 247.519 76.9398 245.106 76.9398C242.523 76.9398 241.113 76.9228 240.875 76.8887C240.297 76.8547 239.549 76.293 238.632 75.2037C238.326 74.8632 237.884 74.2845 237.306 73.4675C237.136 73.1611 236.949 72.8207 236.745 72.4462C236.541 72.0718 236.236 71.8846 235.828 71.8846C235.182 71.8846 233.517 72.7526 230.832 74.4888C229.132 75.6122 227.671 76.3271 226.447 76.6334C225.699 76.8377 224.476 76.9398 222.777 76.9398C220.567 76.9398 218.715 76.7185 217.22 76.276C216.472 76.0717 215.622 75.5441 214.671 74.693C213.719 73.8079 213.243 72.9909 213.243 72.242C213.243 71.7654 215.503 68.7697 220.024 63.2549C220.771 62.4379 221.74 61.3315 222.93 59.9358C222.998 59.8336 224.323 58.3528 226.906 55.4933C227.11 55.289 227.212 54.9826 227.212 54.5741C227.212 53.1103 225.818 50.8125 223.032 47.6806C222.828 47.4763 222.556 47.3061 222.216 47.17C221.91 47.0338 221.23 46.9146 220.177 46.8125C219.259 46.7104 218.579 46.4721 218.137 46.0976V45.5359C218.443 45.3317 218.817 45.2125 219.259 45.1785L222.216 45.0253C222.318 45.0253 222.709 45.0083 223.388 44.9742C224.034 44.9742 224.408 44.9742 224.51 44.9742C224.612 44.9742 224.969 44.9913 225.581 45.0253C226.192 45.0253 226.549 45.0253 226.651 45.0253C229.71 45.0253 232.837 48.1061 236.032 54.2677C236.643 55.289 237.527 56.8379 238.683 58.9145C239.668 61.0592 241.164 64.2591 243.169 68.5144C244.936 72.3271 246.704 74.4888 248.471 74.9994C248.675 75.0675 249.134 75.3398 249.847 75.8164V76.5313ZM234.655 68.5654C234.655 67.9867 233.5 65.4676 231.188 61.0081C230.373 59.4081 229.71 58.5741 229.2 58.506C228.351 59.1528 226.787 60.8209 224.51 63.5102C223.966 64.157 223.643 64.5825 223.541 64.7868C223.032 65.4676 222.505 66.1485 221.961 66.8293C220.975 68.2591 220.482 69.2974 220.482 69.9442C220.482 70.7612 221.06 71.5271 222.216 72.242C223.235 72.8207 224.136 73.1101 224.918 73.1101C226.175 73.1101 227.739 72.7696 229.608 72.0888C230.118 71.9186 231.018 71.476 232.31 70.7612C232.548 70.591 232.837 70.3697 233.177 70.0973C234.162 69.4165 234.655 68.9059 234.655 68.5654Z" stroke="white" stroke-width="6" mask="url(#path-2-outside-1_109_22)"/>
<path d="M318.408 76.8377C317.694 77.1441 316.879 77.2972 315.961 77.2972C313.548 77.2972 311.424 76.8377 309.589 75.9185C309.589 75.8505 309.623 75.493 309.69 74.8462C309.758 74.3356 309.758 73.9441 309.69 73.6718C309.385 72.5484 309.028 71.5952 308.62 70.8122C307.736 69.4165 306.479 67.425 304.847 64.8378C304.439 64.191 303.284 62.7272 301.381 60.4464C299.171 57.7911 297.846 56.4635 297.404 56.4635C296.656 56.4635 295.076 59.5443 292.663 65.7059C291.575 68.4633 290.012 71.7994 287.973 75.7143C287.735 76.1909 287.174 76.4292 286.29 76.4292C285.577 76.4292 284.778 76.1398 283.894 75.5611C283.011 74.9483 282.569 74.3186 282.569 73.6718C282.569 73.5016 282.824 72.9909 283.333 72.1399C283.843 71.2548 284.098 70.6931 284.098 70.4548C284.098 69.4335 282.195 66.8463 278.388 62.6932C274.718 58.6762 272.678 56.6677 272.271 56.6677C271.727 56.6677 270.928 57.689 269.875 59.7315C269.331 60.8549 268.804 61.9613 268.294 63.0506C267.105 65.3314 265.932 67.6123 264.776 69.8931C263.247 72.7526 261.701 74.9824 260.137 76.5824C259.797 76.9228 258.999 77.093 257.741 77.093C256.993 77.093 256.416 76.9739 256.008 76.7356C255.43 76.293 254.852 75.8505 254.274 75.4079C253.527 74.8292 252.473 74.0973 251.114 73.2122C251.283 73.0079 251.572 72.9058 251.98 72.9058L252.082 72.9569H252.235C252.473 72.9569 252.83 72.9399 253.306 72.9058C253.816 72.9058 254.155 72.9058 254.325 72.9058C254.733 72.9058 255.039 72.7016 255.243 72.2931C256.365 70.2505 258.132 66.8463 260.545 62.0804C265.915 51.0848 269.79 45.587 272.169 45.587C272.848 45.587 273.749 45.8764 274.871 46.4551C275.992 46.9998 276.553 47.5274 276.553 48.038C276.553 48.2423 276.179 48.9572 275.431 50.1827C274.718 51.3742 274.361 52.072 274.361 52.2763C274.361 52.9231 276.196 55.1188 279.867 58.8634C282.892 61.9613 284.863 63.9017 285.781 64.6846C286.256 64.4804 286.715 63.9187 287.157 62.9996C287.429 62.3187 287.718 61.6379 288.024 60.957C289.451 57.7571 290.879 54.5401 292.306 51.3061C294.617 46.3359 296.232 43.8509 297.149 43.8509C297.693 43.8509 298.645 44.4126 300.004 45.5359C301.364 46.6253 302.043 47.4934 302.043 48.1402C302.043 48.3444 301.67 48.9912 300.922 50.0806C299.936 51.5444 299.341 52.4465 299.137 52.7869L318.408 76.0717V76.8377Z" stroke="white" stroke-width="6" mask="url(#path-2-outside-1_109_22)"/>
<path d="M356.875 61.3655C356.875 64.7357 354.989 68.0378 351.216 71.2718C349.687 72.5654 347.511 73.9101 344.69 75.3058C344.419 75.3739 343.994 75.493 343.416 75.6632C341.445 76.6505 339.252 77.1441 336.839 77.1441C336.058 77.1441 334.698 76.9909 332.761 76.6845C332.455 76.5143 331.945 76.276 331.231 75.9696C329.804 75.5611 328.292 74.6249 326.694 73.1611C325.131 71.6633 324.145 70.1995 323.737 68.7697C323.431 67.7825 323.278 66.625 323.278 65.2974C323.278 63.9357 323.431 62.6421 323.737 61.4166C323.941 61.1443 324.179 60.7187 324.451 60.14C324.723 59.0847 325.777 57.3826 327.612 55.0337C328.462 53.9784 329.787 52.7359 331.588 51.3061C332.438 50.6252 333.237 50.1146 333.984 49.7742C336.432 48.5827 337.655 47.6976 337.655 47.1189C337.655 46.8806 337.4 46.5061 336.89 45.9955C336.177 45.3487 335.769 44.9572 335.667 44.8211C335.089 44.2083 334.205 43.2892 333.016 42.0636C328.733 36.3786 326.592 33.2467 326.592 32.668C326.592 31.5446 327.799 30.2851 330.212 28.8893C332.353 27.6298 333.798 27 334.545 27C334.647 27 334.834 27.034 335.106 27.1021C335.378 27.1362 335.582 27.1532 335.718 27.1532C335.718 27.1872 335.735 27.2383 335.769 27.3064C335.837 27.3745 335.871 27.4766 335.871 27.6128C335.871 27.817 335.599 28.0893 335.055 28.4298C334.409 28.8042 334.001 29.1447 333.832 29.451C333.73 29.5872 333.679 29.8425 333.679 30.217C333.679 31.1021 334.749 32.9404 336.89 35.7318C338.488 37.8084 339.728 39.2892 340.612 40.1743C341.292 40.7871 342.328 41.7743 343.722 43.136C346.475 45.8253 349.211 48.4976 351.93 51.1529C354.037 53.3316 355.532 55.5443 356.416 57.7911C356.722 58.5741 356.875 59.7656 356.875 61.3655ZM351.522 63.5102C351.522 62.591 351.063 61.3655 350.145 59.8336C349.398 58.5741 348.633 57.5358 347.851 56.7188C345.914 54.6763 343.943 52.821 341.937 51.1529C341.666 50.9146 341.173 50.7955 340.459 50.7955C338.59 50.7955 336.567 51.7486 334.392 53.655C332.217 55.5273 330.705 57.5528 329.855 59.7315C329.243 61.2975 328.937 62.1825 328.937 62.3868C328.937 63.9527 329.413 65.5868 330.365 67.2889C331.35 68.9569 332.642 70.1995 334.239 71.0165C334.715 71.2548 335.735 71.5101 337.298 71.7824C337.4 71.8165 337.604 71.8846 337.91 71.9867C338.25 72.0888 338.471 72.1399 338.573 72.1399C340.85 72.1399 343.399 71.425 346.22 69.9952C349.755 68.225 351.522 66.0633 351.522 63.5102Z" stroke="white" stroke-width="6" mask="url(#path-2-outside-1_109_22)"/>
<path d="M397.798 74.5398C397.594 74.8803 396.523 75.3739 394.586 76.0207C392.683 76.6675 391.323 76.9909 390.507 76.9909C389.148 76.9909 386.548 75.1866 382.707 71.5782C379.037 68.1399 377.201 66.1314 377.201 65.5527C377.201 65.1783 378.238 64.2932 380.311 62.8974C383.132 60.957 385.052 59.5613 386.072 58.7102C388.111 56.906 389.148 55.306 389.182 53.9103C389.216 52.7869 388.859 51.6635 388.111 50.5401C387.262 49.2125 386.208 48.5657 384.95 48.5997C382.537 48.6678 379.869 50.1487 376.947 53.0422C374.126 55.7996 372.715 58.0634 372.715 59.8336V70.5058C372.715 70.5739 372.749 70.7612 372.817 71.0675C372.885 71.3399 372.919 71.5271 372.919 71.6292V75.51C372.919 76.5994 371.322 77.1441 368.127 77.1441C366.36 77.1441 365.255 76.9398 364.813 76.5313C364.813 76.3611 364.966 76.0377 365.272 75.5611C365.578 75.0845 365.748 74.7952 365.782 74.693C366.02 73.7058 366.19 72.6505 366.292 71.5271C366.393 70.0293 366.461 69.1952 366.495 69.025L366.597 48.6508C366.495 47.6295 365.986 46.9657 365.068 46.6593C363.844 46.2508 363.148 45.9444 362.978 45.7402C363.25 45.0594 364.235 44.7189 365.935 44.7189C366.003 44.7189 366.41 44.77 367.158 44.8721C367.94 44.9402 368.365 44.9742 368.433 44.9742C368.535 44.9742 368.671 45.0083 368.841 45.0764C369.044 45.1445 369.197 45.1785 369.299 45.1785C370.251 45.1785 370.846 45.2976 371.084 45.5359C371.458 46.0806 371.848 46.6253 372.256 47.17C372.324 47.6806 372.358 47.9359 372.358 47.9359C372.358 48.004 372.358 48.2253 372.358 48.5997C372.358 48.6338 372.443 49.2636 372.613 50.4891C372.817 51.7146 372.885 52.5656 372.817 53.0422C373.225 53.4848 373.48 53.7061 373.582 53.7061C373.514 53.7061 374.194 52.9401 375.621 51.4082C377.252 49.6721 378.952 48.2763 380.719 47.221C383.268 45.7232 385.851 44.9742 388.468 44.9742C390.236 44.9742 391.646 45.7402 392.7 47.2721C393.617 48.5657 394.076 50.0295 394.076 51.6635C394.076 53.5358 393.192 55.4592 391.425 57.4337C390.303 58.6932 388.672 60.106 386.531 61.6719C384.764 62.9655 383.88 63.6974 383.88 63.8676C383.88 64.3102 385.307 65.8421 388.162 68.4633C390.779 70.8463 392.768 72.5484 394.127 73.5696C394.365 73.7398 394.943 73.842 395.86 73.876C396.676 73.876 397.322 74.0973 397.798 74.5398Z" stroke="white" stroke-width="6" mask="url(#path-2-outside-1_109_22)"/>
<path d="M416.897 75.6632C416.897 76.2079 416.387 76.5483 415.367 76.6845C414.62 76.7866 413.498 76.8887 412.003 76.9909C411.901 76.9909 411.374 77.0419 410.422 77.1441C409.471 77.2462 408.961 77.2972 408.893 77.2972C407.771 77.2972 407.125 77.0079 406.956 76.4292C406.718 75.6122 406.599 75.0334 406.599 74.693V68.3101C406.599 68.242 406.616 67.9697 406.65 67.4931C406.718 67.0165 406.752 66.7612 406.752 66.7272V64.6846C406.752 64.7187 406.735 64.4123 406.701 63.7655C406.667 63.1527 406.667 62.6932 406.701 62.3868C406.701 61.9443 406.735 61.3145 406.803 60.4975C406.871 59.6464 406.905 59.2039 406.905 59.1698V56.6167L407.006 52.838C406.905 52.055 406.854 51.204 406.854 50.2848C406.854 48.4465 406.463 47.3742 405.681 47.0678C405.341 46.9657 404.355 46.8125 402.724 46.6083C401.501 46.4721 400.889 46.2508 400.889 45.9444C400.889 45.5019 401.518 45.2296 402.775 45.1274C406.684 44.787 408.978 44.6168 409.657 44.6168C410.235 44.6168 410.898 44.753 411.646 45.0253C412.563 45.3317 413.022 45.7232 413.022 46.1998V55.6975C413.022 55.6635 413.022 56.1911 413.022 57.2805C412.988 58.3698 412.971 59.1528 412.971 59.6294C412.971 59.8336 412.954 60.157 412.92 60.5996C412.886 61.0081 412.869 61.2123 412.869 61.2123V68.974C412.869 69.008 412.92 69.2122 413.022 69.5867C413.158 69.9612 413.226 70.1824 413.226 70.2505V72.3441C413.226 72.6845 413.311 73.1782 413.481 73.825C413.719 74.6079 413.974 75.0164 414.246 75.0505C414.79 75.0845 415.588 75.1526 416.642 75.2547C416.812 75.2888 416.897 75.4249 416.897 75.6632Z" stroke="white" stroke-width="6" mask="url(#path-2-outside-1_109_22)"/>
<path d="M466.918 75.7143C466.918 76.0888 466.544 76.3951 465.796 76.6334C465.218 76.8036 464.675 76.8887 464.165 76.8887H461.973C461.361 76.8887 460.732 76.7526 460.086 76.4802C459.305 76.1058 458.863 75.5951 458.761 74.9483C458.795 74.3015 458.693 73.3994 458.455 72.242C458.217 71.7994 457.571 71.408 456.518 71.0675C455.668 70.8292 454.818 70.591 453.969 70.3527C452.779 69.9101 451.063 69.2122 448.82 68.2591C446.406 67.1016 444.639 66.2336 443.517 65.6548C441.24 64.4634 439.337 63.391 437.808 62.4379C436.924 61.6208 435.836 60.7698 434.545 59.8847C433.967 59.8507 433.678 60.2762 433.678 61.1613V72.3952C433.678 75.3909 431.299 76.8887 426.541 76.8887C425.725 76.8887 425.181 76.6505 424.909 76.1739V69.2803L425.929 54.5231C425.929 54.2848 425.946 53.9103 425.98 53.3997C426.014 52.855 426.031 52.4295 426.031 52.1231C426.031 49.4338 425.096 47.8338 423.227 47.3232V46.5572C426.626 45.3998 428.784 44.8211 429.702 44.8211C430.653 44.8211 431.401 45.1615 431.945 45.8423C433.406 47.8848 435.87 51.272 439.337 56.0039C441.002 58.1826 444.061 60.7528 448.514 63.7144C452.83 66.574 455.736 68.0548 457.231 68.1569C458.081 68.225 458.506 67.4761 458.506 65.9102C458.506 61.9272 457.979 55.7826 456.925 47.4763C456.857 47.1019 456.365 46.2849 455.447 45.0253C455.923 44.6508 456.603 44.4636 457.486 44.4636C458.71 44.4636 459.882 44.6338 461.004 44.9742C462.024 45.2806 462.601 45.587 462.737 45.8934C464.199 49.4338 465.048 54.5912 465.286 61.3655C465.252 63.4761 465.303 66.625 465.439 70.8122C465.541 72.5143 465.813 73.7398 466.255 74.4888C466.697 75.2037 466.918 75.6122 466.918 75.7143Z" stroke="white" stroke-width="6" mask="url(#path-2-outside-1_109_22)"/>
<path d="M504.957 74.2335C505.161 75.2547 504.634 76.0377 503.377 76.5824C502.459 76.9568 501.406 77.1441 500.216 77.1441C498.517 77.1441 497.667 76.5143 497.667 75.2547C497.667 75.0845 497.684 74.8462 497.718 74.5398C497.752 74.1994 497.769 73.9611 497.769 73.825C497.769 73.1441 497.429 72.8037 496.749 72.8037C496.749 72.8037 496.104 73.1782 494.812 73.9271C493.283 74.7781 491.804 75.476 490.377 76.0207C488.27 76.7696 486.247 77.1441 484.31 77.1441C480.232 77.1441 476.799 75.7994 474.012 73.1101C471.259 70.3867 469.883 66.9655 469.883 62.8464C469.883 58.6251 471.667 54.9656 475.236 51.8678C478.124 49.3827 481.914 47.4253 486.604 45.9955C490.411 44.8381 493.81 44.2594 496.8 44.2594C498.602 44.2594 500.267 44.6338 501.797 45.3828C503.768 46.37 504.753 47.7487 504.753 49.5189C504.753 51.0848 504.057 52.3954 502.663 53.4507C501.304 54.472 499.842 54.9826 498.279 54.9826C498.075 54.7784 497.973 54.5231 497.973 54.2167C497.973 54.0465 498.007 53.7571 498.075 53.3486C498.143 52.9401 498.177 52.6167 498.177 52.3784C498.177 51.8337 498.007 51.3571 497.667 50.9486C496.579 49.7912 495.458 49.0253 494.302 48.6508C493.487 48.3785 492.399 48.2423 491.04 48.2423C487.505 48.2423 484.242 49.1444 481.251 50.9486C477.479 53.2295 475.592 56.3273 475.592 60.2421C475.592 63.3059 476.782 66.2336 479.161 69.025C481.71 71.9867 484.582 73.4675 487.777 73.4675C489.306 73.4675 491.226 72.9399 493.538 71.8846C495.883 70.7952 497.191 69.791 497.463 68.8718C497.599 68.3612 497.667 67.3059 497.667 65.7059C497.667 65.6038 497.684 65.3825 497.718 65.0421C497.752 64.6676 497.769 64.3612 497.769 64.1229C497.769 62.6251 497.191 61.8762 496.036 61.8762C495.9 61.8762 494.88 62.1145 492.977 62.5911C491.074 63.0676 490.054 63.3059 489.918 63.3059C488.864 63.3059 488.338 62.9825 488.338 62.3357C488.338 61.9272 488.609 61.4506 489.153 60.906C489.697 60.3272 490.207 59.9868 490.683 59.8847C492.28 59.5783 494.489 59.2209 497.31 58.8124C499.859 58.4379 501.287 58.2507 501.593 58.2507C503.802 58.2507 504.855 58.9145 504.753 60.2421L504.957 74.2335Z" stroke="white" stroke-width="6" mask="url(#path-2-outside-1_109_22)"/>
</g>
<defs>
<clipPath id="clip0_109_22">
<rect width="512" height="104" fill="white"/>
</clipPath>
</defs>
</svg>
