<svg width="104" height="104" viewBox="0 0 104 104" fill="none" xmlns="http://www.w3.org/2000/svg">
<path d="M35.7719 59.0453L36.7617 60.0368L37.6976 60.9741L62.5433 36.0883C69.6603 28.9597 76.1065 22.4787 80.7606 17.7827C81.8633 16.6701 82.8651 15.658 83.7513 14.7614C82.8172 15.0949 81.8155 15.4538 80.7766 15.8272L72.3159 18.878L54.0817 38.9023L35.7719 59.0453ZM35.7719 59.0453C36.0371 58.7524 36.3946 58.3582 36.8356 57.8726C37.8207 56.7875 39.2199 55.2482 40.9297 53.3677C41.9396 52.2569 43.0579 51.0271 44.2631 49.7018C47.1379 46.5403 50.5073 42.835 54.0808 38.9033L35.7719 59.0453ZM43.2297 81.4414L33.0819 71.2771L43.2297 81.4414ZM43.2297 81.4414C43.2506 81.3372 43.2686 81.2355 43.2827 81.1398L43.2826 81.1398L43.2841 81.1299C43.4652 79.9515 43.1487 78.2039 42.5638 77.136C42.5524 77.1212 42.5169 77.074 42.4428 76.9842C42.3351 76.8539 42.1835 76.6784 41.9869 76.4579C41.5949 76.0181 41.0503 75.4286 40.3772 74.7167C39.0326 73.2946 37.1968 71.4069 35.0891 69.2958L35.0875 69.2942C31.7668 65.9583 29.9733 64.1674 28.8422 63.1229C27.7538 62.1179 27.368 61.8871 26.8708 61.6376C26.2263 61.3248 25.9527 61.2124 25.6834 61.1471C25.4085 61.0806 25.0662 61.0465 24.2668 61.027L24.2529 61.0267L24.2391 61.0261C23.7007 61.003 23.3115 61.0036 22.9985 61.0267C23.492 61.541 24.0916 62.16 24.7803 62.8666C26.8948 65.0359 29.8324 68.0126 33.0803 71.2755L43.2297 81.4414ZM82.916 6.86444L82.9183 6.86362C86.9653 5.42081 90.7105 4.10492 93.4875 3.14665C94.8752 2.66778 96.0254 2.27674 96.852 2.00343C97.2642 1.86715 97.6033 1.7577 97.854 1.68066C97.9781 1.64251 98.0911 1.60908 98.185 1.58358C98.2101 1.57677 98.4196 1.51524 98.6274 1.50299L98.6549 1.50137L98.6823 1.50076C99.5398 1.48168 100.33 1.82513 100.925 2.27094C101.525 2.72053 102.057 3.37083 102.326 4.15728C102.327 4.15994 102.328 4.1626 102.329 4.16526L102.329 4.16585C102.364 4.26553 102.435 4.4679 102.472 4.71977C102.512 4.99208 102.506 5.25826 102.471 5.53236C102.408 6.02947 102.228 6.69195 101.921 7.66798C101.293 9.66347 99.9788 13.4174 97.3902 20.8144C95.9595 24.9072 94.621 28.6787 93.6149 31.4561C93.1122 32.8438 92.6905 33.9888 92.381 34.8032C92.2269 35.2089 92.097 35.542 91.9971 35.7853C91.9479 35.9052 91.9003 36.017 91.8574 36.11C91.8365 36.1553 91.8095 36.2117 91.7787 36.2691L91.777 36.2722C91.7625 36.2998 91.68 36.4559 91.5431 36.6067C91.4638 36.6942 91.225 36.9159 90.9727 37.1502L90.9554 37.1662C90.6508 37.4491 90.2149 37.8519 89.663 38.3605C88.5588 39.3782 86.9857 40.8237 85.0603 42.5904C81.2092 46.1241 75.9458 50.9447 70.1981 56.2016L70.1971 56.2025C64.441 61.458 59.2139 66.2475 55.4262 69.73C53.5322 71.4715 51.9991 72.8852 50.9402 73.8666C50.554 74.2245 50.232 74.5239 49.9791 74.7603C50.0476 74.9595 50.126 75.1809 50.2096 75.41L50.2133 75.4199L50.2167 75.4298C51.0008 77.6735 51.1625 81.1735 50.6384 83.5795L50.6371 83.5851C50.2442 85.3563 49.1448 87.8346 48.1581 89.1445L48.1531 89.1513L48.1479 89.1579C47.4359 90.0815 46.5665 90.8231 45.602 91.23C44.6214 91.6438 43.4815 91.7261 42.4318 91.1823C42.2436 91.0847 42.0763 90.9471 42.019 90.8999C42.016 90.8974 42.0132 90.8951 42.0108 90.8931C41.9109 90.8113 41.7943 90.7102 41.6689 90.5986C41.4161 90.3734 41.0887 90.0706 40.7126 89.7163C39.9584 89.0055 38.9811 88.0612 37.9584 87.0566L37.9532 87.0515L37.9481 87.0463L35.3477 84.4418L30.6717 89.1254L25.3726 94.4331V95.715C25.3726 97.3406 25.2661 98.1596 24.8192 99.2817C24.0602 101.258 22.3079 103.051 20.3897 104.001C19.7944 104.299 19.2784 104.54 18.6533 104.671C18.0572 104.796 17.4306 104.806 16.6468 104.806C15.8695 104.806 15.2474 104.795 14.6477 104.672C14.027 104.544 13.5043 104.311 12.8916 104.014C11.3582 103.305 10.4794 102.448 6.18344 98.1258L6.18272 98.1251C4.49401 96.4238 3.20936 95.0928 2.29787 94.0971C1.84262 93.5998 1.47008 93.1748 1.18272 92.8221C0.912946 92.491 0.659014 92.1526 0.496891 91.8459L0.496882 91.8459L0.494196 91.8408C-1.28113 88.4504 -0.635131 84.2396 2.07861 81.4698C3.94781 79.5285 6.67801 78.6646 9.4703 78.9843C9.47177 78.9845 9.47324 78.9847 9.47472 78.9848L9.82919 79.0236L15.1366 73.7254L15.1384 73.7237L19.9115 68.975L17.2693 66.3145C17.2688 66.314 17.2683 66.3135 17.2678 66.313C16.241 65.2846 15.2813 64.2936 14.56 63.5263C14.2001 63.1435 13.8937 62.81 13.6659 62.5524C13.5529 62.4247 13.4511 62.3064 13.369 62.2054L13.3622 62.1971C13.3133 62.1372 13.1693 61.9608 13.0723 61.7665C12.8473 61.3158 12.699 60.6736 12.699 60.1551C12.699 59.2809 13.0604 58.4969 13.5182 57.8603C13.9817 57.2159 14.61 56.6278 15.3185 56.1099C16.7358 55.0739 18.6355 54.2008 20.7039 53.6799C23.4724 52.9768 26.5668 53.2086 29.4105 54.2804C29.4983 54.1934 29.5967 54.0948 29.7064 53.9835C30.3858 53.2946 31.4279 52.1967 32.9159 50.5985C35.8883 47.406 40.6024 42.2582 47.6718 34.4909L47.6719 34.4907C52.463 29.2283 56.9111 24.3385 60.3375 20.5717C64.1893 16.3373 66.75 13.5221 67.0559 13.1925C67.3572 12.8528 67.7236 12.6085 68.2073 12.3623C68.6897 12.1168 69.3886 11.8206 70.4339 11.4142C72.5378 10.5961 76.247 9.25428 82.916 6.86444ZM88.4276 23.1235L88.428 23.1222C88.7981 22.0572 89.1522 21.0334 89.4795 20.0829C88.5379 21.0186 87.4653 22.0862 86.2799 23.2674C81.574 27.9563 75.0933 34.4328 67.9757 41.5618L43.1462 66.4315L44.1784 67.4654L45.2748 68.5433L64.3949 51.0842L64.3959 51.0833C69.9462 46.0241 75.0557 41.3475 78.8162 37.8922C80.6967 36.1643 82.2388 34.7427 83.3298 33.7316C83.8756 33.2258 84.3066 32.8244 84.61 32.5394C84.804 32.3572 84.9227 32.2438 84.9858 32.1835C85.0345 32.1369 85.0501 32.122 85.0416 32.1316L85.0611 32.1096L85.0681 32.1023C85.0738 32.0933 85.1333 32.0106 85.2484 31.7755C85.3937 31.4789 85.5871 31.026 85.8563 30.3304C86.3932 28.9425 87.1825 26.7174 88.4276 23.1235ZM9.45478 87.2723L9.45181 87.2698C9.20533 87.0617 9.03463 86.9228 8.90088 86.8239C8.7694 86.7267 8.70822 86.6943 8.68648 86.6841C8.68571 86.6837 8.685 86.6834 8.68433 86.6831C8.6775 86.6798 8.67538 86.6788 8.65728 86.6759C8.61961 86.67 8.54238 86.6627 8.36349 86.6627C7.97348 86.6627 7.75428 86.7467 7.63206 86.8242C7.51955 86.8956 7.39552 87.0196 7.29122 87.283C7.1557 87.6267 7.14409 87.7201 7.14326 87.7363C7.1507 87.7676 7.18521 87.8689 7.32055 88.076C7.80091 88.8107 8.92794 89.9886 11.4281 92.523C13.757 94.8756 15.0235 96.1041 15.8539 96.7334C16.2553 97.0375 16.4549 97.1219 16.5383 97.1471C16.5781 97.1591 16.6147 97.17 16.756 97.1446C16.9762 97.099 17.2554 96.9432 17.4856 96.6813C17.7093 96.4267 17.782 96.1943 17.7897 96.07C17.7891 96.066 17.7883 96.0612 17.7873 96.0555C17.7812 96.0192 17.77 95.9674 17.7529 95.9046C17.7256 95.8048 17.6927 95.7121 17.6631 95.6423C17.6607 95.6392 17.6582 95.636 17.6556 95.6325C17.6098 95.5733 17.5396 95.4872 17.4416 95.3724C17.2469 95.1441 16.9755 94.8404 16.6427 94.4781C15.979 93.7557 15.1017 92.8332 14.1739 91.8796C12.2961 89.9494 10.2975 87.9803 9.45478 87.2723ZM7.14158 87.7254C7.14125 87.7252 7.14144 87.7285 7.1431 87.7356C7.14273 87.7291 7.1419 87.7255 7.14158 87.7254ZM25.533 83.3576L29.8992 78.9844L27.6674 76.7491C26.7809 75.8611 25.9683 75.0567 25.3677 74.4717C25.1782 74.6568 24.9653 74.8658 24.7316 75.0958C23.7248 76.0872 22.3474 77.457 20.8414 78.9654L16.4165 83.3975L18.5895 85.574C19.4742 86.4602 20.2909 87.2586 20.8965 87.8317C20.9116 87.8459 20.9264 87.86 20.9412 87.8739C21.1492 87.6762 21.3873 87.4475 21.6519 87.1913C22.6645 86.2111 24.0386 84.8544 25.533 83.3576Z" fill="black" stroke="white" stroke-width="3"/>
</svg>
