<svg width="110" height="110" viewBox="0 0 110 110" fill="none" xmlns="http://www.w3.org/2000/svg">
<path d="M38.9368 61.0435L39.9978 62.1062L41.0048 63.1149L66.7734 37.3047C74.144 29.9222 80.8197 23.2102 85.6398 18.3468C86.8505 17.1252 87.9439 16.0205 88.9016 15.0512C87.8721 15.4187 86.7584 15.8176 85.6003 16.2339L76.8257 19.3978L57.933 40.1452L38.9368 61.0435ZM38.9368 61.0435C39.2146 60.7366 39.5967 60.3153 40.0725 59.7913C41.0927 58.6675 42.5418 57.0734 44.3125 55.1259C45.3578 53.9762 46.5153 52.7033 47.7626 51.3316C50.7403 48.057 54.2305 44.2189 57.9321 40.1463L38.9368 61.0435ZM87.8519 7.0524L87.8542 7.05157C92.0453 5.55742 95.9238 4.19472 98.7994 3.20238C100.236 2.70648 101.427 2.3016 102.283 2.01866C102.71 1.87757 103.061 1.76436 103.32 1.68473C103.448 1.6453 103.564 1.61087 103.661 1.58469C103.688 1.57719 103.9 1.5153 104.108 1.50301L104.136 1.50139L104.163 1.50078C105.036 1.48135 105.843 1.83126 106.452 2.28772C107.067 2.74817 107.611 3.4137 107.886 4.21707C107.886 4.21937 107.887 4.22166 107.888 4.22396L107.888 4.22475C107.924 4.32767 107.996 4.53314 108.034 4.78882C108.075 5.0649 108.068 5.33551 108.033 5.6158C107.968 6.12529 107.783 6.80716 107.465 7.81821C106.814 9.88379 105.454 13.7704 102.773 21.4318C101.292 25.6701 99.9055 29.5755 98.8637 32.4515C98.3432 33.8886 97.9066 35.074 97.5862 35.9171C97.4266 36.3371 97.2923 36.6816 97.1891 36.9329C97.1382 37.0567 97.0893 37.1718 97.0453 37.267C97.0239 37.3135 96.9965 37.3708 96.9653 37.4289C96.9566 37.445 96.8726 37.6095 96.7288 37.7679C96.6482 37.8567 96.4016 38.0857 96.1375 38.331L96.1234 38.3441C95.808 38.637 95.3566 39.054 94.7851 39.5808C93.6415 40.6347 92.0125 42.1317 90.0185 43.9613C86.0302 47.6208 80.5794 52.6132 74.6269 58.0573L74.626 58.0581C68.6648 63.5009 63.2514 68.4611 59.3288 72.0677C57.3673 73.8712 55.7796 75.3353 54.6828 76.3518C54.2699 76.7345 53.9277 77.0527 53.662 77.3011C53.7357 77.5161 53.821 77.7575 53.9124 78.0077L53.916 78.0175L53.9194 78.0275C54.7279 80.341 54.8952 83.9556 54.3544 86.4384L54.3531 86.4441C53.9476 88.2718 52.8119 90.8312 51.7953 92.181L51.7902 92.1877L51.7851 92.1944C51.0518 93.1455 50.1583 93.9067 49.17 94.3236C48.1656 94.7474 47.0021 94.8303 45.9323 94.276C45.7427 94.1777 45.5734 94.0385 45.5139 93.9896L45.5055 93.9827C45.4029 93.8986 45.2828 93.7944 45.1532 93.679C44.8919 93.4463 44.5532 93.1332 44.1639 92.7663C43.3831 92.0306 42.3713 91.0529 41.3124 90.0127L41.3072 90.0076L41.302 90.0024L38.5712 87.2672L33.6908 92.1555L28.1873 97.6679V99.0176C28.1873 100.698 28.0773 101.538 27.618 102.692C26.8373 104.725 25.0327 106.572 23.0565 107.551C22.4403 107.86 21.9113 108.106 21.2711 108.24C20.6601 108.368 20.0165 108.379 19.2041 108.379C18.3986 108.379 17.7595 108.368 17.1447 108.241C16.5087 108.11 15.9724 107.871 15.3381 107.564C13.7607 106.834 12.8588 105.956 8.40598 101.477L8.40526 101.476C6.65655 99.7142 5.32674 98.3364 4.38352 97.306C3.9124 96.7914 3.52734 96.3521 3.23066 95.9879C2.95155 95.6453 2.69147 95.2984 2.52621 94.9857L2.5262 94.9857L2.52351 94.9806C0.695872 91.4903 1.36071 87.1544 4.15536 84.3022C6.07828 82.305 8.88871 81.4146 11.7661 81.7441C11.7676 81.7443 11.769 81.7444 11.7705 81.7446L12.1633 81.7875L17.6779 76.2826L17.6797 76.2808L22.6607 71.3253L19.8866 68.5321C19.8864 68.5318 19.8861 68.5316 19.8859 68.5313C18.8226 67.4663 17.8287 66.4401 17.082 65.6458C16.7094 65.2495 16.3925 64.9045 16.1571 64.6383C16.0403 64.5063 15.9354 64.3844 15.8511 64.2807L15.8442 64.2722C15.7934 64.21 15.6478 64.0316 15.5501 63.836C15.321 63.3769 15.1691 62.72 15.1691 62.191C15.1691 61.3006 15.5373 60.4994 16.0075 59.8457C16.4833 59.1841 17.1295 58.5789 17.8601 58.0449C19.3215 56.9766 21.2824 56.075 23.4187 55.537C26.2847 54.8091 29.4911 55.0523 32.4358 56.1692C32.5329 56.0731 32.643 55.9628 32.767 55.8371C33.4712 55.1231 34.5508 53.9856 36.0919 52.3304C39.1704 49.0239 44.0526 43.6926 51.3738 35.6486L51.374 35.6484C56.3391 30.1949 60.9482 25.1279 64.4975 21.2261C68.4802 16.8477 71.1283 13.9366 71.4472 13.5928C71.7534 13.2472 72.1267 12.9974 72.6255 12.7435C73.1226 12.4905 73.8443 12.1846 74.9266 11.7637C77.1046 10.9168 80.9451 9.52747 87.8519 7.0524ZM93.5923 23.8578L93.5928 23.8566C94.0044 22.672 94.397 21.5366 94.7565 20.4915C93.7428 21.4988 92.5765 22.6595 91.2799 23.9515C86.4064 28.8075 79.6948 35.5147 72.3237 42.8977L46.572 68.691L47.6788 69.7997L48.8506 70.9516L68.6892 52.8365L68.6901 52.8356C74.4382 47.5961 79.7297 42.7529 83.6243 39.1744C85.5717 37.385 87.1689 35.9127 88.2988 34.8655C88.864 34.3417 89.3106 33.9259 89.6249 33.6306C89.8313 33.4367 89.9561 33.3174 90.0208 33.2555C90.0673 33.2111 90.0828 33.1963 90.0752 33.2048L90.0947 33.1828L90.1042 33.1729C90.1077 33.167 90.1712 33.0818 90.2974 32.8241C90.4489 32.5148 90.6498 32.0441 90.9288 31.3232C91.4853 29.8849 92.303 27.5796 93.5923 23.8578ZM27.0691 63.0397C26.4446 63.0128 26.0118 63.0167 25.666 63.0499C26.1916 63.5982 26.8394 64.2673 27.5891 65.0364C29.7793 67.2834 32.8222 70.3668 36.1864 73.7465C36.1865 73.7466 36.1867 73.7468 36.1868 73.7469L46.7663 84.3435C46.7966 84.2007 46.8227 84.0606 46.8417 83.931L46.8417 83.931L46.8432 83.9211C47.0326 82.6876 46.7019 80.8635 46.0893 79.7477C46.0784 79.7335 46.041 79.6835 45.9602 79.5856C45.8481 79.4499 45.6906 79.2676 45.4868 79.039C45.0803 78.583 44.5159 77.9721 43.8187 77.2347C42.4258 75.7614 40.5242 73.8061 38.3412 71.6196L38.3396 71.618C34.901 68.1636 33.0426 66.3079 31.8702 65.2253C30.7405 64.1821 30.337 63.9398 29.816 63.6785C29.1484 63.3545 28.8604 63.2355 28.5752 63.1665C28.2844 63.0961 27.9249 63.0608 27.0968 63.0406L27.083 63.0403L27.0691 63.0397ZM11.7903 90.2333L11.7873 90.2308C11.532 90.0151 11.3541 89.8704 11.2141 89.7669C11.0764 89.6651 11.0099 89.6293 10.983 89.6167C10.9692 89.6102 10.9637 89.6078 10.9384 89.6038C10.8952 89.597 10.812 89.5895 10.6258 89.5895C10.2142 89.5895 9.97664 89.6782 9.83969 89.765C9.71244 89.8457 9.57726 89.9837 9.46563 90.2656C9.30633 90.6696 9.30838 90.7486 9.30865 90.7587L9.30865 90.7589L9.30869 90.7594L9.30942 90.7637C9.31043 90.7688 9.31373 90.7835 9.32349 90.8098C9.34411 90.8655 9.39173 90.9686 9.50097 91.1357C10.0021 91.9023 11.1744 93.1269 13.761 95.7489C16.1722 98.1846 17.487 99.4603 18.3508 100.115C18.7688 100.432 18.9814 100.523 19.0764 100.552C19.1276 100.567 19.1744 100.578 19.3274 100.551C19.5687 100.501 19.868 100.332 20.1129 100.054C20.3534 99.78 20.4344 99.5254 20.4414 99.3829C20.4406 99.3776 20.4395 99.3704 20.438 99.3613C20.4313 99.3218 20.4193 99.2663 20.4012 99.1999C20.3716 99.0917 20.3357 98.991 20.3032 98.9152C20.2996 98.9105 20.2956 98.9053 20.2912 98.8996C20.243 98.8372 20.1696 98.7473 20.0679 98.6281C19.8657 98.391 19.5841 98.076 19.2392 97.7005C18.5515 96.9519 17.6425 95.9961 16.6815 95.0083C14.7371 93.0098 12.6655 90.9685 11.7903 90.2333ZM33.0041 81.691L30.6552 79.3383C29.7254 78.407 28.8739 77.5643 28.2495 76.9565C28.2449 76.952 28.2402 76.9475 28.2356 76.943C28.0301 77.1437 27.7969 77.3724 27.5395 77.6259C26.4966 78.6528 25.0701 80.0714 23.5104 81.6337L18.8902 86.2614L21.1782 88.5531C22.0947 89.4711 22.9408 90.2984 23.5685 90.8923C23.5968 90.919 23.6245 90.9452 23.6516 90.9708C23.8757 90.758 24.135 90.5092 24.4247 90.2287C25.4737 89.2133 26.897 87.808 28.4447 86.2578L33.0041 81.691Z" fill="black" stroke="white" stroke-width="3"/>
</svg>
