<svg width="256"
  height="256"
  viewBox="0 0 256 256"
  fill="#000000"
  xmlns="http://www.w3.org/2000/svg">
  <path
    d="M0 202.999L47.2968 82.2219C53.9621 65.2019 70.3994 54 88.7085 54H117.223L69.9263 174.777C63.261 191.797 46.8237 202.999 28.5146 202.999H0Z" />
  <path
    d="M69.3866 203L116.683 82.2224C123.348 65.2025 139.786 54.0005 158.095 54.0005H186.61L139.312 174.778C132.648 191.798 116.21 203 97.9011 203H69.3866Z" />
  <path
    d="M138.777 203L186.074 82.2224C192.739 65.2025 209.176 54.0005 227.485 54.0005H256L208.703 174.778C202.038 191.798 185.601 203 167.292 203H138.777Z" />
</svg>