<svg viewBox="0 0 512 104"
  fill="none"
  xmlns="http://www.w3.org/2000/svg">
  <path
    d="M171.451 71.044C171.485 71.2831 171.502 71.505 171.502 71.7099C171.502 73.0417 170.53 74.0319 168.587 74.6808C167.257 75.1247 165.825 75.3466 164.29 75.3466C161.767 75.3466 160.505 74.4246 160.505 72.5807C160.505 72.3416 160.522 71.9831 160.556 71.505C160.624 70.9928 160.658 70.6343 160.658 70.4294C160.658 69.3708 160.13 68.8415 159.073 68.8415C159.107 68.8415 158.135 69.4049 156.157 70.5318C153.873 71.8636 151.639 72.9051 149.457 73.6563C146.32 74.7832 143.285 75.3466 140.352 75.3466C134.249 75.3466 129.1 73.3148 124.905 69.2513C120.745 65.1877 118.665 60.0656 118.665 53.8849C118.665 47.4993 121.359 41.9844 126.747 37.3404C131.077 33.6183 136.772 30.6816 143.831 28.5303C149.559 26.7887 154.691 25.918 159.226 25.918C161.886 25.918 164.375 26.4985 166.694 27.6595C169.661 29.1279 171.144 31.1938 171.144 33.8573C171.144 36.2135 170.07 38.194 167.922 39.799C165.944 41.3015 163.762 42.0527 161.375 42.0527C161.102 41.7454 160.965 41.3527 160.965 40.8746C160.965 40.6014 161.017 40.1746 161.119 39.5941C161.221 38.9794 161.272 38.5014 161.272 38.1599C161.272 37.3404 160.999 36.6233 160.454 36.0086C158.817 34.2671 157.129 33.1061 155.39 32.5255C154.197 32.1158 152.56 31.9109 150.48 31.9109C145.194 31.9109 140.284 33.2768 135.749 36.0086C130.089 39.4234 127.258 44.0845 127.258 49.992C127.258 54.5678 129.049 58.9729 132.629 63.2072C136.448 67.6805 140.762 69.9172 145.57 69.9172C147.888 69.9172 150.787 69.0976 154.265 67.4585C157.777 65.8195 159.738 64.317 160.147 62.9511C160.386 62.1998 160.505 60.6119 160.505 58.1875C160.505 58.0509 160.522 57.7094 160.556 57.163C160.624 56.6167 160.658 56.1728 160.658 55.8313C160.658 53.5775 159.789 52.4507 158.05 52.4507C157.845 52.4507 156.311 52.8092 153.447 53.5263C150.582 54.2093 149.031 54.5507 148.792 54.5507C148.28 54.5507 147.769 54.4142 147.257 54.141C146.746 53.8678 146.49 53.5263 146.49 53.1165C146.49 52.5019 146.882 51.7677 147.667 50.914C148.485 50.0603 149.252 49.5652 149.968 49.4286C152.355 48.9505 155.68 48.4213 159.942 47.8407C163.796 47.2602 165.927 46.97 166.336 46.97C169.712 46.97 171.315 47.9773 171.144 49.992L171.451 71.044Z"
    fill="black" />
  <path
    d="M214.764 72.0685C214.764 72.7514 213.332 73.4344 210.467 74.1173C208.183 74.6637 206.7 74.9369 206.018 74.9369H188.525C187.672 74.9369 187.058 74.3734 186.683 73.2466C186.445 72.5295 186.325 71.7953 186.325 71.044V54.8581C186.325 54.7215 186.359 54.4654 186.428 54.0898C186.496 53.7141 186.547 53.4751 186.581 53.3727C186.581 53.1678 186.564 52.8604 186.53 52.4507C186.496 52.0409 186.479 51.8019 186.479 51.7336V47.1749C186.479 47.6529 186.513 46.4919 186.581 43.6918C186.615 41.3015 186.615 39.5599 186.581 38.4672C186.547 37.8184 186.189 37.3062 185.507 36.9306C185.029 36.6574 184.092 36.4867 182.694 36.4184C181.432 36.3501 180.46 36.0598 179.778 35.5476V34.7793H191.747C192.94 34.7793 193.64 35.5647 193.844 37.1355L194.151 70.4294C194.151 70.6684 194.287 70.9416 194.56 71.2489C194.867 71.5562 195.396 71.7441 196.146 71.8124C196.657 71.8124 197.169 71.8294 197.68 71.8636C200.135 72.1368 202.676 72.2733 205.301 72.2733C206.972 72.2733 208.353 72.2051 209.445 72.0685C209.922 72.0343 210.757 71.8636 211.951 71.5562C213.008 71.2831 213.605 71.1465 213.741 71.1465C213.946 71.1465 214.287 71.266 214.764 71.505V72.0685Z"
    fill="black" />
  <path
    d="M253.957 74.5783C253.821 74.6808 253.65 74.8003 253.446 74.9369C253.037 74.971 251.621 74.9881 249.2 74.9881C246.609 74.9881 245.194 74.971 244.955 74.9369C244.375 74.9027 243.625 74.3393 242.704 73.2466C242.398 72.9051 241.954 72.3246 241.375 71.505C241.204 71.1977 241.017 70.8562 240.812 70.4806C240.607 70.105 240.3 69.9172 239.891 69.9172C239.243 69.9172 237.573 70.7879 234.879 72.5295C233.174 73.6563 231.707 74.3734 230.48 74.6808C229.73 74.8856 228.502 74.9881 226.797 74.9881C224.581 74.9881 222.722 74.7661 221.222 74.3222C220.472 74.1173 219.619 73.588 218.664 72.7343C217.71 71.8465 217.232 71.027 217.232 70.2757C217.232 69.7976 219.5 66.7927 224.035 61.2607C224.785 60.4412 225.757 59.3314 226.951 57.9314C227.019 57.8289 228.349 56.3435 230.94 53.4751C231.145 53.2702 231.247 52.9629 231.247 52.5531C231.247 51.0848 229.849 48.7798 227.053 45.6382C226.848 45.4333 226.576 45.2626 226.235 45.126C225.928 44.9894 225.246 44.8699 224.189 44.7675C223.268 44.665 222.586 44.426 222.143 44.0504V43.4869C222.449 43.282 222.825 43.1625 223.268 43.1284L226.235 42.9747C226.337 42.9747 226.729 42.9576 227.411 42.9235C228.059 42.9235 228.434 42.9235 228.536 42.9235C228.639 42.9235 228.997 42.9406 229.61 42.9747C230.224 42.9747 230.582 42.9747 230.684 42.9747C233.753 42.9747 236.891 46.0651 240.096 52.2458C240.71 53.2702 241.596 54.8239 242.756 56.9069C243.744 59.0582 245.245 62.2681 247.257 66.5366C249.03 70.3611 250.803 72.5295 252.576 73.0417C252.781 73.11 253.241 73.3831 253.957 73.8612V74.5783ZM238.715 66.5878C238.715 66.0073 237.555 63.4803 235.237 59.007C234.418 57.4021 233.753 56.5655 233.242 56.4972C232.389 57.146 230.821 58.8192 228.536 61.5169C227.991 62.1657 227.667 62.5925 227.564 62.7974C227.053 63.4803 226.524 64.1633 225.979 64.8462C224.99 66.2804 224.495 67.3219 224.495 67.9708C224.495 68.7903 225.075 69.5586 226.235 70.2757C227.257 70.8562 228.161 71.1465 228.945 71.1465C230.207 71.1465 231.776 70.805 233.651 70.122C234.163 69.9513 235.066 69.5074 236.362 68.7903C236.601 68.6196 236.891 68.3976 237.232 68.1244C238.22 67.4415 238.715 66.9292 238.715 66.5878Z"
    fill="black" />
  <path
    d="M322.744 74.8856C322.028 75.193 321.21 75.3466 320.289 75.3466C317.868 75.3466 315.737 74.8856 313.895 73.9637C313.895 73.8954 313.929 73.5368 313.998 72.888C314.066 72.3758 314.066 71.9831 313.998 71.7099C313.691 70.583 313.333 69.6269 312.923 68.8415C312.037 67.4415 310.775 65.4438 309.138 62.8486C308.729 62.1998 307.57 60.7315 305.66 58.4436C303.444 55.7801 302.114 54.4483 301.671 54.4483C300.92 54.4483 299.335 57.5387 296.914 63.7194C295.823 66.4853 294.254 69.8318 292.208 73.7588C291.969 74.2368 291.407 74.4759 290.52 74.4759C289.804 74.4759 289.003 74.1856 288.116 73.6051C287.23 72.9904 286.786 72.3587 286.786 71.7099C286.786 71.5392 287.042 71.027 287.554 70.1733C288.065 69.2854 288.321 68.722 288.321 68.483C288.321 67.4585 286.411 64.8633 282.592 60.6973C278.909 56.6679 276.863 54.6532 276.454 54.6532C275.909 54.6532 275.107 55.6776 274.05 57.7265C273.505 58.8533 272.976 59.9631 272.465 61.0559C271.271 63.3438 270.095 65.6316 268.935 67.9195C267.401 70.7879 265.849 73.0246 264.281 74.6295C263.94 74.971 263.139 75.1417 261.877 75.1417C261.127 75.1417 260.547 75.0222 260.138 74.7832C259.558 74.3393 258.978 73.8954 258.399 73.4514C257.649 72.8709 256.591 72.1368 255.228 71.2489C255.398 71.044 255.688 70.9416 256.097 70.9416L256.199 70.9928H256.353C256.591 70.9928 256.95 70.9757 257.427 70.9416C257.938 70.9416 258.279 70.9416 258.45 70.9416C258.859 70.9416 259.166 70.7367 259.371 70.3269C260.496 68.2781 262.269 64.8633 264.69 60.0827C270.078 49.053 273.965 43.5381 276.352 43.5381C277.034 43.5381 277.938 43.8284 279.063 44.4089C280.188 44.9553 280.751 45.4846 280.751 45.9968C280.751 46.2017 280.376 46.9188 279.626 48.1481C278.909 49.3432 278.551 50.0433 278.551 50.2481C278.551 50.897 280.393 53.0995 284.075 56.8557C287.11 59.9631 289.088 61.9096 290.009 62.6949C290.486 62.4901 290.946 61.9266 291.39 61.0046C291.663 60.3217 291.952 59.6387 292.259 58.9558C293.691 55.7459 295.124 52.519 296.556 49.2749C298.875 44.2894 300.494 41.7966 301.415 41.7966C301.961 41.7966 302.915 42.3601 304.279 43.4869C305.643 44.5796 306.325 45.4504 306.325 46.0992C306.325 46.3041 305.95 46.9529 305.2 48.0456C304.211 49.514 303.614 50.4189 303.41 50.7604L322.744 74.1173V74.8856Z"
    fill="black" />
  <path
    d="M361.337 59.3656C361.337 62.7462 359.445 66.0585 355.66 69.3025C354.125 70.6001 351.943 71.9489 349.113 73.349C348.84 73.4173 348.414 73.5368 347.834 73.7075C345.856 74.6978 343.657 75.193 341.236 75.193C340.452 75.193 339.088 75.0393 337.144 74.732C336.837 74.5612 336.326 74.3222 335.61 74.0149C334.177 73.6051 332.66 72.666 331.057 71.1977C329.489 69.6952 328.5 68.2269 328.091 66.7927C327.784 65.8024 327.63 64.6414 327.63 63.3096C327.63 61.9437 327.784 60.6461 328.091 59.4168C328.295 59.1436 328.534 58.7167 328.807 58.1362C329.08 57.0777 330.137 55.3703 331.978 53.0141C332.83 51.9555 334.16 50.7091 335.968 49.2749C336.82 48.592 337.621 48.0798 338.372 47.7383C340.827 46.5431 342.054 45.6553 342.054 45.0748C342.054 44.8358 341.799 44.4601 341.287 43.9479C340.571 43.2991 340.162 42.9064 340.059 42.7698C339.48 42.1552 338.593 41.2332 337.4 40.0039C333.103 34.3012 330.955 31.1596 330.955 30.5791C330.955 29.4523 332.166 28.1888 334.587 26.7887C336.735 25.5253 338.184 24.8936 338.934 24.8936C339.037 24.8936 339.224 24.9277 339.497 24.996C339.77 25.0301 339.974 25.0472 340.111 25.0472C340.111 25.0814 340.128 25.1326 340.162 25.2009C340.23 25.2692 340.264 25.3716 340.264 25.5082C340.264 25.7131 339.991 25.9863 339.446 26.3278C338.798 26.7034 338.389 27.0449 338.218 27.3522C338.116 27.4888 338.065 27.7449 338.065 28.1205C338.065 29.0083 339.139 30.8523 341.287 33.6524C342.89 35.7354 344.134 37.2208 345.021 38.1087C345.703 38.7233 346.743 39.7136 348.141 41.0795C350.903 43.7772 353.648 46.4578 356.376 49.1213C358.49 51.3067 359.99 53.5263 360.877 55.7801C361.184 56.5655 361.337 57.7606 361.337 59.3656ZM355.967 61.5169C355.967 60.5949 355.506 59.3656 354.586 57.8289C353.836 56.5655 353.068 55.5239 352.284 54.7044C350.34 52.6556 348.363 50.7945 346.351 49.1213C346.078 48.8822 345.584 48.7627 344.867 48.7627C342.992 48.7627 340.963 49.7189 338.781 51.6311C336.598 53.5092 335.081 55.541 334.229 57.7265C333.615 59.2973 333.308 60.1851 333.308 60.39C333.308 61.9608 333.785 63.5999 334.74 65.3072C335.729 66.9805 337.025 68.2269 338.627 69.0464C339.105 69.2854 340.128 69.5415 341.696 69.8147C341.799 69.8489 342.003 69.9172 342.31 70.0196C342.651 70.122 342.873 70.1733 342.975 70.1733C345.26 70.1733 347.817 69.4562 350.647 68.022C354.194 66.2463 355.967 64.0779 355.967 61.5169Z"
    fill="black" />
  <path
    d="M402.395 72.5807C402.191 72.9222 401.116 73.4173 399.173 74.0661C397.263 74.7149 395.899 75.0393 395.081 75.0393C393.717 75.0393 391.108 73.2295 387.255 69.6098C383.572 66.1609 381.731 64.1462 381.731 63.5657C381.731 63.1901 382.771 62.3022 384.851 60.9022C387.681 58.9558 389.608 57.5557 390.631 56.702C392.677 54.8922 393.717 53.2873 393.751 51.8872C393.785 50.7604 393.427 49.6335 392.677 48.5066C391.824 47.1749 390.767 46.5261 389.506 46.5602C387.085 46.6285 384.408 48.1139 381.475 51.0165C378.645 53.7824 377.23 56.0532 377.23 57.8289V68.5342C377.23 68.6025 377.264 68.7903 377.332 69.0976C377.4 69.3708 377.435 69.5586 377.435 69.6611V73.5539C377.435 74.6466 375.832 75.193 372.627 75.193C370.853 75.193 369.745 74.9881 369.302 74.5783C369.302 74.4076 369.455 74.0832 369.762 73.6051C370.069 73.127 370.24 72.8368 370.274 72.7343C370.512 71.7441 370.683 70.6855 370.785 69.5586C370.887 68.0561 370.956 67.2195 370.99 67.0488L371.092 46.6114C370.99 45.587 370.478 44.9211 369.558 44.6138C368.33 44.204 367.631 43.8967 367.46 43.6918C367.733 43.0089 368.722 42.6674 370.427 42.6674C370.495 42.6674 370.905 42.7186 371.655 42.821C372.439 42.8893 372.865 42.9235 372.933 42.9235C373.036 42.9235 373.172 42.9576 373.343 43.0259C373.547 43.0942 373.701 43.1284 373.803 43.1284C374.758 43.1284 375.354 43.2479 375.593 43.4869C375.968 44.0333 376.36 44.5796 376.77 45.126C376.838 45.6382 376.872 45.8943 376.872 45.8943C376.872 45.9626 376.872 46.1846 376.872 46.5602C376.872 46.5944 376.957 47.2261 377.128 48.4554C377.332 49.6847 377.4 50.5384 377.332 51.0165C377.741 51.4604 377.997 51.6823 378.099 51.6823C378.031 51.6823 378.713 50.914 380.145 49.3774C381.782 47.6359 383.487 46.2358 385.26 45.1772C387.818 43.6747 390.409 42.9235 393.035 42.9235C394.808 42.9235 396.223 43.6918 397.28 45.2284C398.201 46.5261 398.661 47.9944 398.661 49.6335C398.661 51.5116 397.775 53.4409 396.002 55.4215C394.876 56.685 393.24 58.1021 391.091 59.6729C389.318 60.9705 388.432 61.7047 388.432 61.8754C388.432 62.3193 389.864 63.856 392.728 66.4853C395.354 68.8757 397.348 70.583 398.712 71.6075C398.951 71.7782 399.531 71.8806 400.451 71.9148C401.27 71.9148 401.918 72.1368 402.395 72.5807Z"
    fill="black" />
  <path
    d="M421.557 73.7075C421.557 74.2539 421.046 74.5954 420.023 74.732C419.273 74.8344 418.147 74.9369 416.647 75.0393C416.545 75.0393 416.016 75.0905 415.061 75.193C414.107 75.2954 413.595 75.3466 413.527 75.3466C412.402 75.3466 411.754 75.0564 411.583 74.4759C411.344 73.6563 411.225 73.0758 411.225 72.7343V66.3317C411.225 66.2634 411.242 65.9902 411.276 65.5121C411.344 65.0341 411.379 64.7779 411.379 64.7438V62.6949C411.379 62.7291 411.362 62.4218 411.327 61.773C411.293 61.1583 411.293 60.6973 411.327 60.39C411.327 59.9461 411.361 59.3143 411.43 58.4948C411.498 57.6411 411.532 57.1972 411.532 57.163V54.602L411.634 50.8116C411.532 50.0262 411.481 49.1725 411.481 48.2505C411.481 46.4065 411.089 45.3309 410.304 45.0236C409.963 44.9211 408.975 44.7675 407.338 44.5626C406.11 44.426 405.496 44.204 405.496 43.8967C405.496 43.4528 406.127 43.1796 407.389 43.0771C411.31 42.7357 413.612 42.5649 414.294 42.5649C414.874 42.5649 415.539 42.7015 416.289 42.9747C417.21 43.282 417.67 43.6747 417.67 44.1528V53.68C417.67 53.6458 417.67 54.1751 417.67 55.2678C417.636 56.3606 417.619 57.146 417.619 57.624C417.619 57.8289 417.602 58.1533 417.568 58.5972C417.533 59.007 417.516 59.2119 417.516 59.2119V66.9975C417.516 67.0317 417.568 67.2366 417.67 67.6122C417.806 67.9878 417.874 68.2098 417.874 68.2781V70.3782C417.874 70.7196 417.96 71.2148 418.13 71.8636C418.369 72.649 418.625 73.0587 418.897 73.0929C419.443 73.127 420.244 73.1953 421.301 73.2978C421.472 73.3319 421.557 73.4685 421.557 73.7075Z"
    fill="black" />
  <path
    d="M471.743 73.7588C471.743 74.1344 471.368 74.4417 470.618 74.6808C470.038 74.8515 469.492 74.9369 468.981 74.9369H466.782C466.168 74.9369 465.537 74.8003 464.889 74.5271C464.105 74.1515 463.661 73.6392 463.559 72.9904C463.593 72.3416 463.491 71.4367 463.252 70.2757C463.014 69.8318 462.366 69.4391 461.309 69.0976C460.456 68.8586 459.604 68.6196 458.751 68.3805C457.558 67.9366 455.836 67.2366 453.585 66.2804C451.164 65.1194 449.391 64.2487 448.266 63.6682C445.981 62.473 444.071 61.3973 442.537 60.4412C441.65 59.6217 440.559 58.768 439.263 57.8801C438.684 57.846 438.394 58.2728 438.394 59.1607V70.4294C438.394 73.4344 436.007 74.9369 431.233 74.9369C430.415 74.9369 429.869 74.6978 429.596 74.2198V67.3049L430.619 52.5019C430.619 52.2629 430.636 51.8872 430.67 51.375C430.705 50.8287 430.722 50.4018 430.722 50.0945C430.722 47.3968 429.784 45.7919 427.908 45.2797V44.5114C431.318 43.3503 433.484 42.7698 434.404 42.7698C435.359 42.7698 436.109 43.1113 436.655 43.7943C438.121 45.8431 440.593 49.2408 444.071 53.9873C445.742 56.1728 448.811 58.7509 453.278 61.7217C457.609 64.5901 460.524 66.0756 462.025 66.178C462.877 66.2463 463.303 65.495 463.303 63.9243C463.303 59.929 462.775 53.7653 461.718 45.4333C461.65 45.0577 461.155 44.2382 460.235 42.9747C460.712 42.5991 461.394 42.4113 462.28 42.4113C463.508 42.4113 464.684 42.582 465.81 42.9235C466.833 43.2308 467.412 43.5381 467.549 43.8455C469.015 47.3968 469.868 52.5702 470.106 59.3656C470.072 61.4827 470.123 64.6414 470.26 68.8415C470.362 70.5489 470.635 71.7782 471.078 72.5295C471.521 73.2466 471.743 73.6563 471.743 73.7588Z"
    fill="black" />
  <path
    d="M509.908 72.2733C510.113 73.2978 509.584 74.0832 508.322 74.6295C507.402 75.0052 506.345 75.193 505.151 75.193C503.446 75.193 502.594 74.5612 502.594 73.2978C502.594 73.127 502.611 72.888 502.645 72.5807C502.679 72.2392 502.696 72.0002 502.696 71.8636C502.696 71.1806 502.355 70.8391 501.673 70.8391C501.673 70.8391 501.025 71.2148 499.729 71.966C498.195 72.8197 496.712 73.5197 495.279 74.0661C493.165 74.8173 491.136 75.193 489.193 75.193C485.101 75.193 481.657 73.8441 478.861 71.1465C476.099 68.4147 474.718 64.9828 474.718 60.851C474.718 56.6167 476.508 52.9458 480.088 49.8384C482.987 47.3456 486.789 45.3821 491.494 43.9479C495.314 42.7869 498.723 42.2064 501.724 42.2064C503.531 42.2064 505.202 42.582 506.737 43.3333C508.715 44.3235 509.703 45.7065 509.703 47.4822C509.703 49.053 509.004 50.3677 507.606 51.4262C506.242 52.4507 504.776 52.9629 503.208 52.9629C503.003 52.758 502.901 52.5019 502.901 52.1946C502.901 52.0238 502.935 51.7336 503.003 51.3238C503.071 50.914 503.105 50.5896 503.105 50.3506C503.105 49.8042 502.935 49.3262 502.594 48.9164C501.503 47.7554 500.377 46.987 499.218 46.6114C498.4 46.3382 497.308 46.2017 495.944 46.2017C492.398 46.2017 489.125 47.1066 486.124 48.9164C482.339 51.2043 480.446 54.3117 480.446 58.2387C480.446 61.312 481.64 64.2487 484.027 67.0488C486.584 70.0196 489.466 71.505 492.671 71.505C494.205 71.505 496.132 70.9757 498.451 69.9172C500.804 68.8244 502.116 67.8171 502.389 66.8951C502.526 66.3829 502.594 65.3243 502.594 63.7194C502.594 63.6169 502.611 63.395 502.645 63.0535C502.679 62.6779 502.696 62.3705 502.696 62.1315C502.696 60.629 502.116 59.8778 500.957 59.8778C500.821 59.8778 499.798 60.1168 497.888 60.5949C495.978 61.0729 494.956 61.312 494.819 61.312C493.762 61.312 493.234 60.9876 493.234 60.3388C493.234 59.929 493.506 59.4509 494.052 58.9046C494.597 58.3241 495.109 57.9826 495.586 57.8801C497.189 57.5728 499.405 57.2143 502.236 56.8045C504.793 56.4289 506.225 56.241 506.532 56.241C508.749 56.241 509.806 56.9069 509.703 58.2387L509.908 72.2733Z"
    fill="black" />
  <path
    d="M85.4792 5.48333C71.6484 10.4386 70.2085 11.0072 69.6813 11.6165C69.3365 11.982 60.312 21.9129 49.6043 33.6715C34.9624 49.7558 30.0547 55.0157 29.8316 54.9142C26.9316 53.6144 23.7071 53.2895 20.9085 54.0003C16.954 54.9954 13.7904 57.3106 13.7904 59.1993C13.7904 59.5039 13.8918 59.9304 14.0134 60.1741C14.1351 60.4178 15.9603 62.3674 18.0694 64.4795L21.9022 68.3381L15.8589 74.3494L9.83581 80.3607L8.72043 80.2389C6.2463 79.9545 3.91413 80.7263 2.3526 82.3509C0.000148495 84.7473 -0.547404 88.3826 0.973575 91.2867C1.33861 91.9772 3.10295 93.9065 6.59106 97.4198C11.154 102.01 11.8232 102.619 13.1008 103.208C14.3582 103.817 14.6827 103.878 16.3253 103.878C17.9883 103.878 18.2925 103.817 19.5092 103.208C21.1925 102.375 22.7134 100.791 23.3421 99.1461C23.7071 98.2322 23.8085 97.6026 23.8085 96.0185V94.0486L29.7505 88.0982L35.6925 82.1479L39.4848 85.9455C41.5939 88.017 43.5001 89.8245 43.7435 89.9463C44.9197 90.5556 46.4813 89.8854 47.7183 88.281C48.5904 87.1234 49.6449 84.7676 50.0099 83.1227C50.4967 80.8887 50.3344 77.5581 49.6246 75.5273C49.3204 74.6946 49.0771 73.9432 49.0771 73.862C49.0771 73.8011 58.8113 64.845 70.7358 53.9597C82.64 43.0743 92.5365 33.9964 92.7393 33.773C92.9421 33.5497 95.5176 26.4214 98.4785 17.9527C103.853 2.59952 103.873 2.5386 103.589 1.72626C103.264 0.77176 102.23 3.71374e-05 101.318 0.0203456C100.973 0.0406541 93.8547 2.49798 85.4792 5.48333ZM64.9561 35.3774L38.126 62.2455L36.0575 60.1741L33.989 58.1026L34.4148 57.6355C34.6379 57.3715 43.4393 47.7047 53.9442 36.1491L73.0883 15.1299L82.2141 11.8399C87.2435 10.0324 91.4414 8.54991 91.5631 8.54991C91.6645 8.5296 79.6994 20.6131 64.9561 35.3774ZM92.1309 21.3646C89.5554 28.7975 88.8253 30.6862 88.3183 31.2142C87.9939 31.5797 78.3204 40.4748 66.8218 50.954L45.9337 70.0237L43.7435 67.871L41.5736 65.698L68.3834 38.8502C83.1267 24.0859 95.2337 12.0227 95.2743 12.0633C95.3148 12.1039 93.8953 16.2874 92.1309 21.3646ZM27.6008 59.3414C28.9799 60.0319 29.6694 60.6818 36.5239 67.5664C40.9043 71.953 44.1694 75.4257 44.4939 75.9741C45.2848 77.3754 45.6904 79.5687 45.447 81.1527C45.3456 81.8432 45.082 82.7977 44.8792 83.2445L44.5141 84.0975L32.2449 71.8108C25.512 65.0481 20.0568 59.4633 20.1379 59.382C20.219 59.3008 20.7463 59.0774 21.3344 58.854C22.1659 58.5697 22.8351 58.4885 24.2547 58.5494C25.9176 58.59 26.2624 58.6916 27.6008 59.3414ZM28.8379 75.2836L32.2449 78.6954L26.6274 84.3209C23.5246 87.4281 20.9085 89.9666 20.7869 89.9666C20.6652 89.9666 19.0834 88.4638 17.2379 86.6157L13.8918 83.2648L19.5701 77.5784C22.6932 74.4509 25.289 71.8921 25.3498 71.8921C25.4106 71.8921 26.9722 73.4152 28.8379 75.2836ZM9.87637 86.0877C11.7624 87.6718 18.3736 94.4751 18.7386 95.1859C18.9211 95.5515 19.0631 96.0795 19.0631 96.3638C19.0631 97.5417 17.968 98.7805 16.7309 99.0242C15.4127 99.2679 14.5813 98.618 9.81553 93.8049C4.76588 88.6872 4.54281 88.3622 5.19176 86.7173C5.61763 85.6409 6.48966 85.0926 7.747 85.0926C8.59875 85.0926 8.84211 85.2144 9.87637 86.0877Z"
    fill="black" />
</svg>